<?xml version="1.0" encoding="iso-8859-1"?>
<!-- Generator: Adobe Illustrator 19.0.0, SVG Export Plug-In . SVG Version: 6.00 Build 0)  -->
<svg version="1.1" id="Layer_1" xmlns="http://www.w3.org/2000/svg" xmlns:xlink="http://www.w3.org/1999/xlink" x="0px" y="0px"
	 viewBox="0 0 512.005 512.005" style="enable-background:new 0 0 512.005 512.005;" xml:space="preserve">
<rect x="57.972" y="170.146" style="fill:#CCCCCC;" width="396.062" height="255.956"/>
<rect x="107.111" y="170.094" style="fill:#FFFFFF;" width="297.34" height="255.997"/>
<g>
	<rect x="54.409" y="175.436" style="fill:#666666;" width="8" height="247.397"/>
	<rect x="103.553" y="175.447" style="fill:#666666;" width="8" height="247.397"/>
	<rect x="449.589" y="175.436" style="fill:#666666;" width="8" height="247.397"/>
	<rect x="400.45" y="175.447" style="fill:#666666;" width="8" height="247.397"/>
</g>
<polyline style="fill:#CCCCCC;" points="60.129,84.624 256.097,0 452.057,84.624 "/>
<g>
	<rect x="23.889" y="420.925" style="fill:#999999;" width="464.227" height="91.08"/>
	<rect x="23.889" y="84.624" style="fill:#999999;" width="464.227" height="91.08"/>
</g>
<rect x="202.831" y="113.798" style="fill:#CCCCCC;" width="106.332" height="32.736"/>
<g style="opacity:0.3;">
	<rect x="400.439" y="175.704" style="fill:#666666;" width="57.142" height="28.472"/>
</g>
<g style="opacity:0.3;">
	
		<rect x="54.445" y="175.591" transform="matrix(1 0.002 -0.002 1 0.3798 -0.1657)" style="fill:#666666;" width="57.204" height="28.472"/>
</g>
<path style="fill:#E21B1B;" d="M308.802,371.008c-11.742,6.653-25.017,10.122-38.512,10.064c-21.947,0.615-42.944-8.953-56.88-25.92
	c-8.775-10.721-14.279-23.74-15.857-37.505h-16.144v-15.36h14.096v-4c0-3.016,0.248-6.288,0.504-9.056h-14.6v-15.632h16.864
	c2.585-14.195,9.131-27.371,18.88-38.008c13.789-15.48,33.674-24.13,54.4-23.664c12.43-0.09,24.724,2.576,36,7.808l-6.296,23.416
	c-8.722-4.468-18.383-6.8-28.184-6.8c-12.184-0.322-23.891,4.742-32,13.84c-5.753,6.651-9.587,14.743-11.088,23.408h65.952v15.6
	H226.97c-0.426,2.913-0.594,5.858-0.504,8.8v4.28h69.48v15.352h-66.712c1.102,9.11,4.868,17.691,10.824,24.672
	c8.8,9.12,21.063,14.065,33.728,13.6c10.361-0.12,20.545-2.708,29.704-7.552L308.802,371.008z"/>
<g>
</g>
<g>
</g>
<g>
</g>
<g>
</g>
<g>
</g>
<g>
</g>
<g>
</g>
<g>
</g>
<g>
</g>
<g>
</g>
<g>
</g>
<g>
</g>
<g>
</g>
<g>
</g>
<g>
</g>
</svg>
