<?xml version="1.0" encoding="iso-8859-1"?>
<!-- Generator: Adobe Illustrator 19.0.0, SVG Export Plug-In . SVG Version: 6.00 Build 0)  -->
<svg version="1.1" id="Layer_1" xmlns="http://www.w3.org/2000/svg" xmlns:xlink="http://www.w3.org/1999/xlink" x="0px" y="0px"
	 viewBox="0 0 512.001 512.001" style="enable-background:new 0 0 512.001 512.001;" xml:space="preserve">
<path style="fill:#F4AD47;" d="M383.139,372.244c0,71.47-49.82,129.403-111.287,129.403s-111.287-57.934-111.287-129.403
	c0-49.367,23.771-92.278,58.736-114.082c15.645-9.783,33.541-15.321,52.551-15.321c19.009,0,36.906,5.538,52.551,15.321
	C359.368,279.967,383.139,322.877,383.139,372.244z"/>
<ellipse style="fill:#EFEFEF;" cx="271.851" cy="297.188" rx="67.29" ry="54.349"/>
<path style="fill:#E8594F;" d="M324.403,258.162c-15.645-9.783-33.541-15.321-52.551-15.321c-19.009,0-36.906,5.538-52.551,15.321
	l35.444-54.845c8.024-12.418,26.19-12.418,34.214,0L324.403,258.162z"/>
<g>
	<path style="fill:#61C7D2;" d="M200.034,100.935H77.1c-25.014,0-45.291-20.278-45.291-45.291l0,0
		c0-25.014,20.278-45.291,45.291-45.291h122.933V100.935z"/>
	<rect x="371.492" y="24.587" style="fill:#61C7D2;" width="108.699" height="62.114"/>
</g>
<g>
	<path style="fill:#231F20;" d="M455.821,358.01H392.86c-1.154-13.015-3.89-25.626-8.017-37.527h26.981
		c19.147,0,34.723-15.578,34.723-34.724v-19.625c0-5.717-4.635-10.352-10.352-10.352s-10.352,4.635-10.352,10.352v19.625
		c0,7.731-6.288,14.02-14.018,14.02h-33.861c-0.682,0-1.347,0.07-1.992,0.195c-10.599-20.164-25.627-37.262-44.076-49.288
		l-29.703-45.963l36.942-36.942c4.043-4.044,4.043-10.597,0-14.641c-4.044-4.041-10.597-4.041-14.641,0l-35.643,35.643
		c-4.955-3.296-10.83-5.131-16.998-5.131c-5.953,0-11.633,1.7-16.476,4.779l-33.14-33.14c-4.044-4.041-10.597-4.041-14.641,0
		c-4.043,4.044-4.043,10.597,0,14.641l34.261,34.261l-30.046,46.496c-18.537,12.088-33.619,29.29-44.226,49.577
		c-0.989-0.314-2.041-0.485-3.134-0.485h-33.861c-7.731,0-14.018-6.289-14.018-14.02v-19.625c0-5.717-4.635-10.352-10.352-10.352
		s-10.352,4.635-10.352,10.352v19.625c0,19.147,15.576,34.724,34.723,34.724h28.276c-4.128,11.901-6.864,24.512-8.018,37.527H86.59
		c-19.147,0-34.723,15.576-34.723,34.723v33.861c0,5.717,4.635,10.352,10.352,10.352s10.352-4.635,10.352-10.352v-33.861
		c0-7.731,6.288-14.018,14.018-14.018h63.758c0.52,13.052,2.606,25.64,6.046,37.527h-25.808c-19.147,0-34.723,15.576-34.723,34.723
		v19.627c0,5.717,4.635,10.352,10.352,10.352s10.352-4.635,10.352-10.352v-19.627c0-7.731,6.288-14.018,14.018-14.018h33.474
		c20.35,44.573,61.028,75.054,107.792,75.054s87.442-30.481,107.792-75.054h32.18c7.731,0,14.018,6.288,14.018,14.018v19.627
		c0,5.717,4.635,10.352,10.352,10.352s10.352-4.635,10.352-10.352v-19.627c0-19.147-15.576-34.723-34.723-34.723h-24.514
		c3.44-11.887,5.526-24.475,6.046-37.527h62.464c7.731,0,14.018,6.288,14.018,14.018v33.861c0,5.717,4.635,10.352,10.352,10.352
		s10.352-4.635,10.352-10.352v-33.861C490.544,373.586,474.968,358.01,455.821,358.01z M271.853,204.356
		c3.465,0,6.531,1.668,8.413,4.578l0.013,0.019c0.021,0.031,0.04,0.063,0.061,0.094l17.173,26.576
		c-0.062-0.016-0.124-0.019-0.186-0.034c-7.326-1.795-14.808-2.822-22.338-3.045c-1.04-0.035-2.085-0.056-3.135-0.056
		c-1.051,0-2.095,0.022-3.135,0.056c-7.531,0.223-15.016,1.25-22.341,3.046c-0.061,0.014-0.122,0.018-0.182,0.032l17.247-26.689
		C265.322,206.024,268.387,204.356,271.853,204.356z M233.479,262.139c12.097-5.871,25.191-8.946,38.375-8.946
		c13.182,0,26.274,3.073,38.376,8.947c11.399,9.302,18.562,22.206,18.562,35.05c0,24.261-25.542,43.997-56.938,43.997
		s-56.937-19.737-56.937-43.997C214.915,284.345,222.079,271.44,233.479,262.139z M271.853,491.295
		c-55.656,0-100.935-53.406-100.935-119.051c0-28.343,8.485-55.081,23.318-76.093c-0.006,0.347-0.026,0.691-0.026,1.039
		c0,32.751,29.358,59.876,67.29,64.109v64.438c0,5.717,4.635,10.352,10.352,10.352s10.352-4.635,10.352-10.352v-64.436
		c37.932-4.233,67.29-31.36,67.29-64.109c0-0.349-0.018-0.694-0.026-1.042c14.831,21.011,23.318,47.75,23.318,76.096
		C372.787,437.889,327.509,491.295,271.853,491.295z"/>
	<path style="fill:#231F20;" d="M480.192,14.234H371.493c-5.717,0-10.352,4.635-10.352,10.352v20.705H210.386V10.352
		C210.386,4.635,205.751,0,200.034,0H77.1C46.419,0,21.457,24.962,21.457,55.643s24.962,55.643,55.643,55.643h122.933
		c5.717,0,10.352-4.635,10.352-10.352V65.996h150.755V86.7c0,5.717,4.635,10.352,10.352,10.352h108.699
		c5.717,0,10.352-4.635,10.352-10.352V24.587C490.544,18.87,485.909,14.234,480.192,14.234z M189.681,90.582H77.1
		c-19.266,0-34.939-15.673-34.939-34.939S57.835,20.705,77.1,20.705h112.581v24.587h-74.407c-5.717,0-10.352,4.635-10.352,10.352
		s4.635,10.352,10.352,10.352h74.407V90.582z M469.84,76.348h-87.994V34.939h87.994V76.348z"/>
</g>
<g>
</g>
<g>
</g>
<g>
</g>
<g>
</g>
<g>
</g>
<g>
</g>
<g>
</g>
<g>
</g>
<g>
</g>
<g>
</g>
<g>
</g>
<g>
</g>
<g>
</g>
<g>
</g>
<g>
</g>
</svg>
