<?xml version="1.0" encoding="iso-8859-1"?>
<!-- Generator: Adobe Illustrator 19.0.0, SVG Export Plug-In . SVG Version: 6.00 Build 0)  -->
<svg version="1.1" id="Layer_1" xmlns="http://www.w3.org/2000/svg" xmlns:xlink="http://www.w3.org/1999/xlink" x="0px" y="0px"
	 viewBox="0 0 512 512" style="enable-background:new 0 0 512 512;" xml:space="preserve">
<path style="fill:#2DB37F;" d="M501.93,184.713C471.057,78.018,372.645,0,256,0C114.615,0,0,114.615,0,256
	c0,116.645,78.018,215.057,184.713,245.93L501.93,184.713z"/>
<path style="fill:#008D75;" d="M512,256c0-24.741-3.522-48.657-10.07-71.287l-51.148-51.148L61.217,378.435L184.713,501.93
	C207.343,508.478,231.259,512,256,512C397.385,512,512,397.384,512,256z"/>
<polygon style="fill:#FBE287;" points="61.217,378.435 61.217,133.565 128,133.565 289.391,256 128,378.435 "/>
<g>
	<rect x="128" y="178.087" style="fill:#FDBA4C;" width="44.522" height="22.261"/>
	<polygon style="fill:#FDBA4C;" points="150.261,133.565 128,133.565 128,155.826 161.391,155.826 	"/>
	<rect x="128" y="267.13" style="fill:#FDBA4C;" width="44.522" height="22.261"/>
	<rect x="128" y="222.609" style="fill:#FDBA4C;" width="44.522" height="22.261"/>
	<polygon style="fill:#FDBA4C;" points="128,378.435 128,356.174 172.522,356.174 150.261,378.435 	"/>
	<rect x="128" y="311.652" style="fill:#FDBA4C;" width="44.522" height="22.261"/>
</g>
<polygon style="fill:#FBE287;" points="450.783,133.565 450.783,378.435 300.522,378.435 161.391,256 300.522,133.565 "/>
<rect x="150.261" y="133.565" style="fill:#F7EDBC;" width="150.261" height="244.87"/>
<polygon style="fill:#FFD652;" points="428.522,155.826 428.522,356.174 300.522,356.174 263.315,256 300.522,155.826 "/>
<rect x="172.522" y="155.826" style="fill:#FBE287;" width="128" height="200.348"/>
<rect x="83.478" y="155.826" style="fill:#FFD652;" width="22.261" height="200.348"/>
<polygon style="fill:#FB9D46;" points="382.454,234.942 342.82,275.299 351.157,331.247 300.522,306.036 283.1,246.009 
	300.522,175.421 326.667,225.584 "/>
<polygon style="fill:#FDBA4C;" points="300.522,175.421 300.522,306.036 249.898,331.247 258.224,275.299 218.602,234.942 
	274.389,225.584 "/>
<g>
</g>
<g>
</g>
<g>
</g>
<g>
</g>
<g>
</g>
<g>
</g>
<g>
</g>
<g>
</g>
<g>
</g>
<g>
</g>
<g>
</g>
<g>
</g>
<g>
</g>
<g>
</g>
<g>
</g>
</svg>
