<?xml version="1.0" encoding="iso-8859-1"?>
<!-- Generator: Adobe Illustrator 19.0.0, SVG Export Plug-In . SVG Version: 6.00 Build 0)  -->
<svg version="1.1" id="Layer_1" xmlns="http://www.w3.org/2000/svg" xmlns:xlink="http://www.w3.org/1999/xlink" x="0px" y="0px"
	 viewBox="0 0 503.322 503.322" style="enable-background:new 0 0 503.322 503.322;" xml:space="preserve">
<g>
	<path style="fill:#F0C419;" d="M475.405,433.898H27.917C12.496,433.898,0,421.402,0,405.981V97.341
		C0,81.92,12.496,69.424,27.917,69.424h447.488c15.412,0,27.917,12.496,27.917,27.917v308.641
		C503.322,421.402,490.817,433.898,475.405,433.898"/>
	<g>
		<path style="fill:#E57E25;" d="M173.656,216.949c-20.992,0-36.873,14.926-43.511,31.241c-6.63-16.315-22.502-31.241-43.503-31.241
			c-43.511,0-57.708,54.393-26.277,86.606c11.698,12.002,66.569,66.864,69.875,69.597c3.827-3.766,58.359-57.439,69.693-69.597
			C231.46,269.755,217.167,216.949,173.656,216.949"/>
		<path style="fill:#E57E25;" d="M475.405,69.424H27.917C12.496,69.424,0,81.92,0,97.341v58.863h503.322V97.341
			C503.322,81.92,490.817,69.424,475.405,69.424"/>
		<path style="fill:#E57E25;" d="M329.761,234.305c-9.572,0-17.356,7.784-17.356,17.356c0,9.572,7.784,17.356,17.356,17.356
			c9.572,0,17.356-7.784,17.356-17.356C347.117,242.089,339.333,234.305,329.761,234.305 M329.761,286.373
			c-19.144,0-34.712-15.568-34.712-34.712s15.568-34.712,34.712-34.712c19.144,0,34.712,15.568,34.712,34.712
			S348.905,286.373,329.761,286.373"/>
		<path style="fill:#E57E25;" d="M416.541,321.085c-9.572,0-17.356,7.784-17.356,17.356c0,9.572,7.784,17.356,17.356,17.356
			c9.572,0,17.356-7.784,17.356-17.356C433.897,328.869,426.112,321.085,416.541,321.085 M416.541,373.153
			c-19.144,0-34.712-15.568-34.712-34.712c0-19.144,15.568-34.712,34.712-34.712c19.144,0,34.712,15.568,34.712,34.712
			C451.253,357.584,435.684,373.153,416.541,373.153"/>
		<path style="fill:#E57E25;" d="M321.074,373.153c-1.805,0-3.636-0.564-5.198-1.736c-3.836-2.872-4.608-8.314-1.736-12.149
			L418.276,220.42c2.881-3.836,8.313-4.617,12.149-1.736c3.836,2.872,4.617,8.313,1.736,12.149L328.025,369.681
			C326.316,371.955,323.712,373.153,321.074,373.153"/>
	</g>
</g>
<g>
</g>
<g>
</g>
<g>
</g>
<g>
</g>
<g>
</g>
<g>
</g>
<g>
</g>
<g>
</g>
<g>
</g>
<g>
</g>
<g>
</g>
<g>
</g>
<g>
</g>
<g>
</g>
<g>
</g>
</svg>
