<?xml version="1.0" encoding="iso-8859-1"?>
<!-- Generator: Adobe Illustrator 19.0.0, SVG Export Plug-In . SVG Version: 6.00 Build 0)  -->
<svg version="1.1" id="Layer_1" xmlns="http://www.w3.org/2000/svg" xmlns:xlink="http://www.w3.org/1999/xlink" x="0px" y="0px"
	 viewBox="0 0 504.117 504.117" style="enable-background:new 0 0 504.117 504.117;" xml:space="preserve">
<path style="fill:#A2BCBA;" d="M165.46,414.423c0,4.553-3.694,8.247-8.247,8.247H107.73c-4.561,0-8.247-3.694-8.247-8.247v-247.43
	c0-4.553,3.686-8.247,8.247-8.247h49.483c4.553,0,8.247,3.694,8.247,8.247V414.423z"/>
<path style="fill:#83A5A2;" d="M99.483,166.993c0-4.553,3.686-8.247,8.247-8.247h49.483c4.553,0,8.247,3.694,8.247,8.247v247.43
	c0,4.553-3.694,8.247-8.247,8.247"/>
<g>
	<path style="fill:#A2BCBA;" d="M173.352,162.18c0,3.048-2.45,5.506-5.49,5.506H97.088c-3.048,0-5.498-2.458-5.498-5.506l0,0
		c0-3.017,2.458-5.49,5.498-5.49h70.774C170.903,156.69,173.352,159.163,173.352,162.18L173.352,162.18z"/>
	<path style="fill:#A2BCBA;" d="M173.352,419.228c0,3.048-2.45,5.506-5.49,5.506H97.088c-3.048,0-5.498-2.458-5.498-5.506l0,0
		c0-3.033,2.458-5.49,5.498-5.49h70.774C170.903,413.729,173.352,416.195,173.352,419.228L173.352,419.228z"/>
</g>
<g>
	<path style="fill:#B6D3D1;" d="M115.717,398.7c0,1-0.811,1.804-1.804,1.804l0,0c-1.008,0-1.796-0.803-1.796-1.804V182.715
		c0-1,0.788-1.804,1.796-1.804l0,0c1,0,1.804,0.803,1.804,1.804V398.7z"/>
	<path style="fill:#B6D3D1;" d="M134.275,398.7c0,1-0.811,1.804-1.804,1.804l0,0c-1,0-1.804-0.803-1.804-1.804V182.715
		c0-1,0.811-1.804,1.804-1.804l0,0c0.992,0,1.804,0.803,1.804,1.804V398.7z"/>
	<path style="fill:#B6D3D1;" d="M152.833,398.7c0,1-0.811,1.804-1.804,1.804l0,0c-1,0-1.804-0.803-1.804-1.804V182.715
		c0-1,0.811-1.804,1.804-1.804l0,0c1,0,1.804,0.803,1.804,1.804V398.7z"/>
	<circle style="fill:#B6D3D1;" cx="98.317" cy="162.574" r="1.032"/>
	<circle style="fill:#B6D3D1;" cx="105.154" cy="162.574" r="1.032"/>
	<circle style="fill:#B6D3D1;" cx="111.983" cy="162.574" r="1.032"/>
	<circle style="fill:#B6D3D1;" cx="118.813" cy="162.574" r="1.032"/>
	<circle style="fill:#B6D3D1;" cx="125.642" cy="162.574" r="1.032"/>
	<circle style="fill:#B6D3D1;" cx="132.471" cy="162.574" r="1.032"/>
	<circle style="fill:#B6D3D1;" cx="139.34" cy="162.574" r="1.032"/>
	<circle style="fill:#B6D3D1;" cx="146.114" cy="162.574" r="1.032"/>
	<circle style="fill:#B6D3D1;" cx="152.959" cy="162.574" r="1.032"/>
	<circle style="fill:#B6D3D1;" cx="159.788" cy="162.574" r="1.032"/>
	<circle style="fill:#B6D3D1;" cx="166.618" cy="162.574" r="1.032"/>
	<circle style="fill:#B6D3D1;" cx="98.317" cy="418.889" r="1.032"/>
	<circle style="fill:#B6D3D1;" cx="105.154" cy="418.889" r="1.032"/>
	<circle style="fill:#B6D3D1;" cx="111.983" cy="418.889" r="1.032"/>
	<circle style="fill:#B6D3D1;" cx="118.813" cy="418.889" r="1.032"/>
	<circle style="fill:#B6D3D1;" cx="125.642" cy="418.889" r="1.032"/>
	<circle style="fill:#B6D3D1;" cx="132.471" cy="418.889" r="1.032"/>
	<circle style="fill:#B6D3D1;" cx="139.34" cy="418.889" r="1.032"/>
	<circle style="fill:#B6D3D1;" cx="146.114" cy="418.889" r="1.032"/>
	<circle style="fill:#B6D3D1;" cx="152.959" cy="418.889" r="1.032"/>
	<circle style="fill:#B6D3D1;" cx="159.788" cy="418.889" r="1.032"/>
	<circle style="fill:#B6D3D1;" cx="166.618" cy="418.889" r="1.032"/>
</g>
<path style="fill:#A2BCBA;" d="M285.047,414.423c0,4.553-3.694,8.247-8.247,8.247h-49.475c-4.561,0-8.255-3.694-8.255-8.247v-247.43
	c0-4.553,3.694-8.247,8.255-8.247H276.8c4.553,0,8.247,3.694,8.247,8.247V414.423z"/>
<path style="fill:#83A5A2;" d="M219.07,166.993c0-4.553,3.694-8.247,8.255-8.247H276.8c4.553,0,8.247,3.694,8.247,8.247v247.43
	c0,4.553-3.694,8.247-8.247,8.247"/>
<g>
	<path style="fill:#A2BCBA;" d="M292.948,162.18c0,3.048-2.458,5.506-5.498,5.506h-70.782c-3.04,0-5.498-2.458-5.498-5.506l0,0
		c0-3.017,2.458-5.49,5.498-5.49h70.782C290.49,156.69,292.948,159.163,292.948,162.18L292.948,162.18z"/>
	<path style="fill:#A2BCBA;" d="M292.948,419.228c0,3.048-2.458,5.506-5.498,5.506h-70.782c-3.04,0-5.498-2.458-5.498-5.506l0,0
		c0-3.033,2.458-5.49,5.498-5.49h70.782C290.49,413.729,292.948,416.195,292.948,419.228L292.948,419.228z"/>
</g>
<g>
	<path style="fill:#B6D3D1;" d="M235.304,398.7c0,1-0.811,1.804-1.804,1.804l0,0c-1,0-1.812-0.803-1.812-1.804V182.715
		c0-1,0.819-1.804,1.812-1.804l0,0c0.992,0,1.804,0.803,1.804,1.804V398.7z"/>
	<path style="fill:#B6D3D1;" d="M253.862,398.7c0,1-0.803,1.804-1.804,1.804l0,0c-1,0-1.804-0.803-1.804-1.804V182.715
		c0-1,0.811-1.804,1.804-1.804l0,0c1,0,1.804,0.803,1.804,1.804V398.7z"/>
	<path style="fill:#B6D3D1;" d="M272.42,398.7c0,1-0.811,1.804-1.804,1.804l0,0c-1,0-1.804-0.803-1.804-1.804V182.715
		c0-1,0.803-1.804,1.804-1.804l0,0c1,0,1.804,0.803,1.804,1.804V398.7z"/>
	<circle style="fill:#B6D3D1;" cx="217.873" cy="162.574" r="1.032"/>
	<circle style="fill:#B6D3D1;" cx="224.726" cy="162.574" r="1.032"/>
	<circle style="fill:#B6D3D1;" cx="231.563" cy="162.574" r="1.032"/>
	<circle style="fill:#B6D3D1;" cx="238.4" cy="162.574" r="1.032"/>
	<circle style="fill:#B6D3D1;" cx="245.229" cy="162.574" r="1.032"/>
	<circle style="fill:#B6D3D1;" cx="252.059" cy="162.574" r="1.032"/>
	<circle style="fill:#B6D3D1;" cx="258.888" cy="162.574" r="1.032"/>
	<circle style="fill:#B6D3D1;" cx="265.686" cy="162.574" r="1.032"/>
	<circle style="fill:#B6D3D1;" cx="272.539" cy="162.574" r="1.032"/>
	<circle style="fill:#B6D3D1;" cx="279.384" cy="162.574" r="1.032"/>
	<circle style="fill:#B6D3D1;" cx="286.205" cy="162.574" r="1.032"/>
	<circle style="fill:#B6D3D1;" cx="217.873" cy="418.889" r="1.032"/>
	<circle style="fill:#B6D3D1;" cx="224.726" cy="418.889" r="1.032"/>
	<circle style="fill:#B6D3D1;" cx="231.563" cy="418.889" r="1.032"/>
	<circle style="fill:#B6D3D1;" cx="238.4" cy="418.889" r="1.032"/>
	<circle style="fill:#B6D3D1;" cx="245.229" cy="418.889" r="1.032"/>
	<circle style="fill:#B6D3D1;" cx="252.059" cy="418.889" r="1.032"/>
	<circle style="fill:#B6D3D1;" cx="258.888" cy="418.889" r="1.032"/>
	<circle style="fill:#B6D3D1;" cx="265.686" cy="418.889" r="1.032"/>
	<circle style="fill:#B6D3D1;" cx="272.539" cy="418.889" r="1.032"/>
	<circle style="fill:#B6D3D1;" cx="279.384" cy="418.889" r="1.032"/>
	<circle style="fill:#B6D3D1;" cx="286.205" cy="418.889" r="1.032"/>
</g>
<path style="fill:#A2BCBA;" d="M404.627,414.423c0,4.553-3.679,8.247-8.239,8.247h-49.483c-4.561,0-8.247-3.694-8.247-8.247v-247.43
	c0-4.553,3.686-8.247,8.247-8.247h49.483c4.561,0,8.239,3.694,8.239,8.247V414.423z"/>
<path style="fill:#83A5A2;" d="M338.657,166.993c0-4.553,3.686-8.247,8.247-8.247h49.483c4.561,0,8.239,3.694,8.239,8.247v247.43
	c0,4.553-3.679,8.247-8.239,8.247"/>
<g>
	<path style="fill:#A2BCBA;" d="M412.535,162.18c0,3.048-2.458,5.506-5.498,5.506h-70.774c-3.048,0-5.506-2.458-5.506-5.506l0,0
		c0-3.017,2.458-5.49,5.506-5.49h70.774C410.078,156.69,412.535,159.163,412.535,162.18L412.535,162.18z"/>
	<path style="fill:#A2BCBA;" d="M412.535,419.228c0,3.048-2.458,5.506-5.498,5.506h-70.774c-3.048,0-5.506-2.458-5.506-5.506l0,0
		c0-3.033,2.458-5.49,5.506-5.49h70.774C410.078,413.729,412.535,416.195,412.535,419.228L412.535,419.228z"/>
</g>
<g>
	<path style="fill:#B6D3D1;" d="M354.892,398.7c0,1-0.803,1.804-1.804,1.804l0,0c-1,0-1.812-0.803-1.812-1.804V182.715
		c0-1,0.819-1.804,1.812-1.804l0,0c1,0,1.804,0.803,1.804,1.804V398.7z"/>
	<path style="fill:#B6D3D1;" d="M373.458,398.7c0,1-0.819,1.804-1.812,1.804l0,0c-1,0-1.804-0.803-1.804-1.804V182.715
		c0-1,0.803-1.804,1.804-1.804l0,0c1,0,1.812,0.803,1.812,1.804V398.7z"/>
	<path style="fill:#B6D3D1;" d="M392.008,398.7c0,1-0.803,1.804-1.804,1.804l0,0c-0.985,0-1.804-0.803-1.804-1.804V182.715
		c0-1,0.819-1.804,1.804-1.804l0,0c1.008,0,1.804,0.803,1.804,1.804V398.7z"/>
	<circle style="fill:#B6D3D1;" cx="337.523" cy="162.574" r="1.04"/>
	<circle style="fill:#B6D3D1;" cx="344.297" cy="162.574" r="1.04"/>
	<circle style="fill:#B6D3D1;" cx="351.15" cy="162.574" r="1.032"/>
	<circle style="fill:#B6D3D1;" cx="357.987" cy="162.574" r="1.024"/>
	<circle style="fill:#B6D3D1;" cx="364.809" cy="162.574" r="1.032"/>
	<circle style="fill:#B6D3D1;" cx="371.646" cy="162.574" r="1.032"/>
	<circle style="fill:#B6D3D1;" cx="378.475" cy="162.574" r="1.032"/>
	<circle style="fill:#B6D3D1;" cx="385.336" cy="162.574" r="1.032"/>
	<circle style="fill:#B6D3D1;" cx="392.11" cy="162.574" r="1.032"/>
	<circle style="fill:#B6D3D1;" cx="398.963" cy="162.574" r="1.032"/>
	<circle style="fill:#B6D3D1;" cx="405.816" cy="162.574" r="1.032"/>
	<circle style="fill:#B6D3D1;" cx="337.523" cy="418.889" r="1.04"/>
	<circle style="fill:#B6D3D1;" cx="344.297" cy="418.889" r="1.04"/>
	<circle style="fill:#B6D3D1;" cx="351.15" cy="418.889" r="1.032"/>
	<circle style="fill:#B6D3D1;" cx="357.987" cy="418.889" r="1.024"/>
	<circle style="fill:#B6D3D1;" cx="364.809" cy="418.889" r="1.032"/>
	<circle style="fill:#B6D3D1;" cx="371.646" cy="418.889" r="1.032"/>
	<circle style="fill:#B6D3D1;" cx="378.475" cy="418.889" r="1.032"/>
	<circle style="fill:#B6D3D1;" cx="385.336" cy="418.889" r="1.032"/>
	<circle style="fill:#B6D3D1;" cx="392.11" cy="418.889" r="1.032"/>
	<circle style="fill:#B6D3D1;" cx="398.963" cy="418.889" r="1.032"/>
	<circle style="fill:#B6D3D1;" cx="405.816" cy="418.889" r="1.032"/>
</g>
<path style="fill:#A2BCBA;" d="M432.472,474.421c0,1.032-0.827,1.859-1.843,1.859H73.504c-1.032,0-1.859-0.827-1.859-1.859v-32.366
	c0-1.032,0.827-1.859,1.859-1.859h357.124c1.016,0,1.843,0.827,1.843,1.859V474.421z"/>
<path style="fill:#90AFAC;" d="M71.646,442.055c0-1.032,0.827-1.859,1.859-1.859h357.124c1.016,0,1.843,0.827,1.843,1.859v32.366
	c0,1.032-0.827,1.859-1.843,1.859"/>
<path style="fill:#B6D3D1;" d="M461.333,502.258c0,1.032-0.827,1.859-1.843,1.859H44.643c-1.032,0-1.859-0.827-1.859-1.859v-32.366
	c0-1.032,0.827-1.859,1.859-1.859h414.846c1.016,0,1.843,0.827,1.843,1.859V502.258z"/>
<path style="fill:#A7C9C6;" d="M42.784,469.884c0-1.032,0.827-1.859,1.859-1.859h414.846c1.016,0,1.843,0.827,1.843,1.859v32.366
	c0,1.032-0.827,1.859-1.843,1.859"/>
<polygon style="fill:#A2BCBA;" points="446.831,128.301 449.352,125.781 252.074,8.241 54.765,125.781 57.317,128.301 "/>
<polygon style="fill:#869E9C;" points="446.831,128.301 449.352,125.781 252.074,8.241 171.517,125.781 174.061,128.301 "/>
<path style="fill:#C1DBD8;" d="M446.831,136.548H57.317c-2.182,0-4.277-0.859-5.829-2.402l-2.536-2.521
	c-1.804-1.804-2.686-4.324-2.371-6.861c0.307-2.521,1.772-4.766,3.962-6.073L247.86,1.152c2.599-1.536,5.853-1.536,8.444,0
	l197.262,117.539c2.198,1.308,3.655,3.537,3.97,6.065c0.315,2.528-0.551,5.049-2.347,6.845l-2.513,2.521
	C451.116,135.674,449.021,136.548,446.831,136.548z M80.483,120.054h343.158L252.074,17.843L80.483,120.054z"/>
<g>
</g>
<g>
</g>
<g>
</g>
<g>
</g>
<g>
</g>
<g>
</g>
<g>
</g>
<g>
</g>
<g>
</g>
<g>
</g>
<g>
</g>
<g>
</g>
<g>
</g>
<g>
</g>
<g>
</g>
</svg>
