<?xml version="1.0" encoding="UTF-8" standalone="no"?>
<!-- Created with Inkscape (http://www.inkscape.org/) -->

<svg
   xmlns:dc="http://purl.org/dc/elements/1.1/"
   xmlns:cc="http://creativecommons.org/ns#"
   xmlns:rdf="http://www.w3.org/1999/02/22-rdf-syntax-ns#"
   xmlns:svg="http://www.w3.org/2000/svg"
   xmlns="http://www.w3.org/2000/svg"
   xmlns:xlink="http://www.w3.org/1999/xlink"
   xmlns:sodipodi="http://sodipodi.sourceforge.net/DTD/sodipodi-0.dtd"
   xmlns:inkscape="http://www.inkscape.org/namespaces/inkscape"
   width="210mm"
   height="297mm"
   viewBox="0 0 744.09448819 1052.3622047"
   id="svg4728"
   version="1.1"
   inkscape:version="0.91 r13725"
   sodipodi:docname="guy_poining_finger.svg">
  <defs
     id="defs4730">
    <linearGradient
       inkscape:collect="always"
       xlink:href="#linearGradient9939"
       id="linearGradient8418"
       gradientUnits="userSpaceOnUse"
       gradientTransform="matrix(1.2755504,0,0,1.2755504,871.55647,-160.3529)"
       x1="379.6304"
       y1="617.43134"
       x2="541.62207"
       y2="617.43134" />
    <linearGradient
       inkscape:collect="always"
       id="linearGradient9939">
      <stop
         style="stop-color:#3e4869;stop-opacity:1;"
         offset="0"
         id="stop9941" />
      <stop
         style="stop-color:#cc99ff;stop-opacity:1"
         offset="1"
         id="stop9943" />
    </linearGradient>
  </defs>
  <sodipodi:namedview
     id="base"
     pagecolor="#ffffff"
     bordercolor="#666666"
     borderopacity="1.0"
     inkscape:pageopacity="0.0"
     inkscape:pageshadow="2"
     inkscape:zoom="0.43245005"
     inkscape:cx="319.35493"
     inkscape:cy="245.07055"
     inkscape:document-units="px"
     inkscape:current-layer="layer1"
     showgrid="false"
     inkscape:window-width="1920"
     inkscape:window-height="1016"
     inkscape:window-x="0"
     inkscape:window-y="27"
     inkscape:window-maximized="1" />
  <metadata
     id="metadata4733">
    <rdf:RDF>
      <cc:Work
         rdf:about="">
        <dc:format>image/svg+xml</dc:format>
        <dc:type
           rdf:resource="http://purl.org/dc/dcmitype/StillImage" />
        <dc:title></dc:title>
      </cc:Work>
    </rdf:RDF>
  </metadata>
  <g
     inkscape:label="Layer 1"
     inkscape:groupmode="layer"
     id="layer1">
    <g
       style="display:inline"
       id="g8477"
       transform="matrix(1.0917185,0,0,1.0917185,-1128.3093,-21.663628)">
      <path
         inkscape:connector-curvature="0"
         id="path8246"
         d="m 1464.3534,381.24451 c 0,0 -63.9812,33.59009 -92.7727,39.98825 -28.7916,6.39816 -60.3019,21.17809 -60.3019,21.17809 0,0 -63.9977,-35.66681 -103.986,9.11993 -39.9882,44.78687 -23.7992,129.10177 -22.1997,193.083 0.8526,34.10133 -2.7615,115.86972 -2.1252,179.10424 0.5576,55.40659 -1.6335,92.52039 -1.6335,92.52039 l 345.4007,4.0477 c 0,0 27.192,-158.35346 43.1873,-223.93422 15.9953,-65.58064 35.1896,-137.55957 33.5901,-164.75162 -1.5995,-27.19193 -19.1943,-86.37453 -54.384,-94.37224 -35.1897,-7.99757 -84.7751,-55.98352 -84.7751,-55.98352 z"
         style="opacity:1;fill:#cc99ff;fill-opacity:1;stroke:#000;stroke-width:3;stroke-linecap:round;stroke-linejoin:round;stroke-miterlimit:4;stroke-dasharray:none;stroke-opacity:1"
         sodipodi:nodetypes="cscsssccsssc" />
      <path
         sodipodi:nodetypes="csssccccsssccsssccsssccsc"
         inkscape:connector-curvature="0"
         id="path8322"
         d="m 1501.6993,431.06062 c -10.1313,0.0306 -21.2874,1.58309 -31.0528,6.46577 -25.8321,12.91609 -58.3574,44.30726 -69.7059,67.0044 -5.685,11.37 -9.6686,28.9902 -12.2736,43.81899 -2.6051,14.82878 -3.8081,26.8539 -3.8081,26.8539 -0.01,0.0778 0,0.15639 0.01,0.2333 l 19.1939,107.16868 c 0.01,0.0434 -9.7752,0.55309 0.034,0.1296 0,0 6.4216,18.47686 18.2888,36.37819 5.9336,8.95066 13.2317,17.77364 21.8237,24.08469 8.5921,6.31104 18.5193,10.1072 29.5615,8.88025 43.6867,-4.85411 74.3295,-47.4057 74.3295,-47.4057 0.701,-0.92184 -0.7183,-1.94764 -1.3737,-0.99289 0,0 -30.4552,41.97071 -73.1432,46.71384 -10.5514,1.17236 -20.0183,-2.42788 -28.3712,-8.56328 -8.353,-6.13527 -15.5501,-14.80786 -21.413,-23.65189 -11.7012,-17.65094 -18.0547,-35.8746 -18.0815,-35.95164 l -19.1583,-106.96932 c 0.018,-0.175 1.2019,-11.96122 3.7762,-26.61474 2.5934,-14.76246 6.6084,-32.33087 12.1201,-43.3543 11.0448,-22.08973 43.5954,-53.57031 68.9483,-66.24673 25.1439,-12.57208 65.9459,-2.23502 65.9459,-2.23502 1.0847,0.31914 -3.6427,-1.30808 -4.7274,-1.62696 0,0 -14.0377,-4.17042 -30.9233,-4.11914 z"
         style="color:#000000;font-style:normal;font-variant:normal;font-weight:normal;font-stretch:normal;font-size:medium;line-height:normal;font-family:sans-serif;text-indent:0;text-align:start;text-decoration:none;text-decoration-line:none;text-decoration-style:solid;text-decoration-color:#000000;letter-spacing:normal;word-spacing:normal;text-transform:none;direction:ltr;block-progression:tb;writing-mode:lr-tb;baseline-shift:baseline;text-anchor:start;white-space:normal;clip-rule:nonzero;display:inline;overflow:visible;visibility:visible;opacity:1;isolation:auto;mix-blend-mode:normal;color-interpolation:sRGB;color-interpolation-filters:linearRGB;solid-color:#000000;solid-opacity:1;fill:#303851;fill-opacity:1;fill-rule:nonzero;stroke:none;stroke-width:1.66073966;stroke-linecap:round;stroke-linejoin:round;stroke-miterlimit:4;stroke-dasharray:none;stroke-dashoffset:0;stroke-opacity:1;color-rendering:auto;image-rendering:auto;shape-rendering:auto;text-rendering:auto;enable-background:accumulate" />
      <path
         sodipodi:nodetypes="cssssssscccc"
         inkscape:connector-curvature="0"
         id="path8324"
         d="m 1393.6898,522.24372 c -1.5159,-18.54714 16.823,-10.30619 42.1534,10.29637 6.633,5.39507 20.2527,12.60104 28.2163,18.34752 4.3214,3.11834 12.1362,15.81593 23.1396,23.14563 12.8942,8.58904 19.3764,16.76188 23.9202,19.79106 8.4212,5.61408 90.4937,95.85743 40.9096,128.59818 -86.3942,57.0467 -106.432,21.5452 -112.4552,17.7372 -31.7349,-20.06353 -60.2447,-99.13594 -65.8589,-118.31766 -5.6141,-19.18173 -7.628,-27.08211 -7.628,-27.08211 l -10.2926,-11.22829 0,0 z"
         style="opacity:1;fill:url(#linearGradient8418);fill-opacity:1;stroke:none;stroke-width:0.66453415;stroke-linecap:round;stroke-linejoin:round;stroke-miterlimit:4;stroke-dasharray:none;stroke-opacity:1" />
      <path
         style="fill:#cc33ff;fill-opacity:1;fill-rule:evenodd;stroke:none;stroke-width:1px;stroke-linecap:butt;stroke-linejoin:miter;stroke-opacity:1"
         d="m 1279.6858,577.0119 c 0,0 -5.9551,21.44724 -5.6867,46.80582 0.3628,34.27901 32.5166,293.11991 32.5166,293.11991 l -8.1819,0.1259 c 0,0 -8.1101,-48.34388 -14.57,-101.03255 -6.9779,-56.91369 -12.405,-118.89691 -14.1359,-130.49444 -3.8031,-25.48129 -4.0473,-67.64592 -2.1904,-86.21526 3.4995,-34.99498 9.1862,-38.49458 9.1862,-38.49458 z"
         id="path8248"
         inkscape:connector-curvature="0"
         sodipodi:nodetypes="csccssscc" />
      <path
         sodipodi:nodetypes="cssccscc"
         inkscape:connector-curvature="0"
         id="path8250"
         d="m 1279.9238,575.78763 c 0,0 -4.7668,8.31468 -6.1241,25.80872 -1.1513,14.83872 -1.4642,51.61044 2.3785,90.91967 9.2978,95.11342 30.201,223.26016 30.201,223.26016 l 7.0027,0.24137 c 0,0 -36.0827,-268.05277 -32.1457,-305.23494 1.9997,-18.88644 6.999,-32.37041 6.999,-32.37041 z"
         style="fill:#cc99ff;fill-opacity:1;fill-rule:evenodd;stroke:none;stroke-width:1px;stroke-linecap:butt;stroke-linejoin:miter;stroke-opacity:1" />
      <path
         style="fill:#cc33ff;fill-opacity:1;fill-rule:evenodd;stroke:none;stroke-width:1px;stroke-linecap:butt;stroke-linejoin:miter;stroke-opacity:1"
         d="m 1287.1222,581.38628 c 0,0 -4.7668,8.3148 -6.1241,25.80885 -3.937,50.74279 32.5366,309.15914 32.5366,309.15914 l 10.0508,0.0271 c 0,0 -39.0879,-262.81778 -35.151,-300.00007 1.9998,-18.88644 6.999,-32.37028 6.999,-32.37028 z"
         id="path8252"
         inkscape:connector-curvature="0"
         sodipodi:nodetypes="csccscc" />
      <path
         sodipodi:nodetypes="csccccccc"
         inkscape:connector-curvature="0"
         id="path8254"
         d="m 1412.2565,298.66066 c 0,0 -18.1134,58.92838 42.5164,103.56295 24.1733,17.79585 -81.2686,54.48463 -81.2686,54.48463 l -39.5001,-14.21716 -66.4239,13.73169 2.7473,-59.72025 45.9886,-7.07523 77.8269,-31.83825 z"
         style="opacity:1;fill:#ffbb95;fill-opacity:1;stroke:#070707;stroke-width:3;stroke-linecap:round;stroke-linejoin:round;stroke-miterlimit:4;stroke-dasharray:none;stroke-opacity:1" />
      <path
         style="fill:#cc33ff;fill-opacity:1;fill-rule:evenodd;stroke:#070707;stroke-width:3;stroke-linecap:butt;stroke-linejoin:miter;stroke-miterlimit:4;stroke-dasharray:none;stroke-opacity:1"
         d="m 1418.2976,357.76903 c 0,0 15.0605,17.43983 7.3021,38.79216 -7.7584,21.3522 -42.8996,45.1814 -42.8996,45.1814 l -6.8456,3.65101 7.302,17.34238 6.3893,4.1074 c 0,0 6.3893,-13.23498 22.3625,-19.62421 15.9733,-6.38936 49.7453,-14.7992 69.3695,-29.30578 19.6243,-14.50657 38.464,-25.54736 35.5975,-51.47317 -1.008,-9.11751 -18.7115,-38.33578 -33.3156,-43.35596 -26.7516,-9.19595 -41.5304,-15.06055 -55.2217,-14.14777 -13.6914,0.91279 -18.7115,10.49676 -18.7115,10.49676 z"
         id="path8256"
         inkscape:connector-curvature="0"
         sodipodi:nodetypes="csccccssssscc" />
      <path
         style="fill:#cc33ff;fill-opacity:1;fill-rule:evenodd;stroke:#070707;stroke-width:3;stroke-linecap:butt;stroke-linejoin:miter;stroke-miterlimit:4;stroke-dasharray:none;stroke-opacity:1"
         d="m 1243.0882,352.7093 c 0,0 -33.8118,21.58678 -43.3957,43.3955 -9.584,21.80859 -7.7585,37.87938 6.3892,51.57076 14.1478,13.69125 53.8527,15.51681 66.1749,17.34238 12.3222,1.82544 41.5304,4.1074 41.5304,4.1074 l 4.3355,-20.43763 c 0,0 -22.8285,4.25613 -34.466,-4.52425 -11.6238,-8.77018 -11.3999,-7.63609 -10.4872,-26.25007 0.9128,-18.61397 -2.7382,-35.49997 -2.7382,-35.49997 z"
         id="path8258"
         inkscape:connector-curvature="0"
         sodipodi:nodetypes="csssccsscc" />
      <path
         style="fill:#cc99ff;fill-opacity:1;fill-rule:evenodd;stroke:none;stroke-width:1px;stroke-linecap:butt;stroke-linejoin:miter;stroke-opacity:1"
         d="m 1421.1573,339.86961 c -1.8915,-0.0395 -6.0521,0.56813 -7.7138,0.74505 l 5.89,17.76701 c 0,0 15.5365,16.82796 7.7781,38.18016 -7.7585,21.35233 -42.8979,45.17999 -42.8979,45.17999 l -6.8461,3.65216 2.9074,6.90596 c 3.7848,-4.69262 11.2718,-13.28346 17.1725,-15.57817 8.2148,-3.19462 58.4163,-32.40115 58.4163,-57.50194 0,-25.10079 -15.5174,-31.0335 -23.7322,-36.51008 -3.0806,-2.05376 -7.1236,-2.75991 -10.9743,-2.84014 z"
         id="path8260"
         inkscape:connector-curvature="0"
         sodipodi:nodetypes="sccscccssss" />
      <path
         style="fill:#82090e;fill-opacity:1;fill-rule:evenodd;stroke:none;stroke-width:2;stroke-linecap:butt;stroke-linejoin:miter;stroke-miterlimit:4;stroke-dasharray:none;stroke-opacity:1"
         d="m 1275.1864,396.05692 c -1.8255,0 -23.2752,4.36863 -20.9934,21.3522 2.2819,16.98358 16.4297,25.65477 24.6445,28.84938 8.2148,3.19462 22.3625,4.1074 22.3625,4.1074 0,0 -10.9409,-4.02398 -18.6877,-14.11179 -3.6537,-4.75781 -6.4658,-12.83166 -7.3259,-18.84499 -0.1292,-0.90359 0,-21.3522 0,-21.3522 z"
         id="path8262"
         inkscape:connector-curvature="0"
         sodipodi:nodetypes="csscssc" />
      <path
         sodipodi:nodetypes="cssscccc"
         inkscape:connector-curvature="0"
         id="path8264"
         d="m 1407.6875,218.50086 c 0,0 23.7459,-7.8107 31.2949,0.8846 11.811,13.60463 -4.4457,40.48035 -11.1086,53.13981 -6.6629,12.65958 -11.6218,15.81567 -16.9521,16.48189 -5.3303,0.66635 -6.0946,-6.43336 -6.0946,-6.43336 l -7.3292,-39.97728 3.3314,-20.65499 z"
         style="opacity:1;fill:#ffb78e;fill-opacity:1;stroke:#070707;stroke-width:3;stroke-linecap:round;stroke-linejoin:round;stroke-miterlimit:4;stroke-dasharray:none;stroke-opacity:1" />
      <path
         sodipodi:nodetypes="cssssssc"
         inkscape:connector-curvature="0"
         id="path8266"
         d="m 1409.0633,251.04742 c 0.6264,2.50557 4.3848,5.22006 2.7144,9.18728 -1.6704,3.96722 -2.4787,9.73373 -2.4787,9.73373 0.1574,5.85937 0.5196,7.30711 0.5196,7.30711 3.9143,1.40949 2.7943,-5.13906 9.8936,-10.77674 7.0993,-5.63768 22.9683,-26.10031 13.5722,-36.33163 -9.3962,-10.23131 -21.5067,5.01126 -23.3859,8.35205 -1.8792,3.34092 -0.8352,12.5282 -0.8352,12.5282 z"
         style="opacity:1;fill:#da956e;fill-opacity:1;stroke:none;stroke-width:1;stroke-linecap:round;stroke-linejoin:round;stroke-miterlimit:4;stroke-dasharray:none;stroke-opacity:1" />
      <path
         sodipodi:nodetypes="csccssccccsc"
         inkscape:connector-curvature="0"
         id="path8268"
         d="m 1215.3146,191.905 c 0,0 4.9753,45.5587 6.5417,60.51377 l -0.115,39.6552 50.4763,95.02685 c 0,0 43.1614,0.85462 45.2981,0.85462 2.1367,0 39.3154,-8.97414 43.1615,-19.23033 3.8461,-10.25619 32.9053,-55.12699 32.9053,-55.12699 l 7.2648,-48.28966 -2.9914,-42.73413 -5.1281,-25.21317 c 0,0 -17.4238,-35.01028 -17.6175,-36.70868 -4.6465,-40.7532 -159.7957,31.25252 -159.7957,31.25252 z"
         style="fill:#ffccae;fill-opacity:1;fill-rule:evenodd;stroke:none;stroke-width:1px;stroke-linecap:butt;stroke-linejoin:miter;stroke-opacity:1" />
      <path
         sodipodi:nodetypes="czsssscccccc"
         inkscape:connector-curvature="0"
         id="path8270"
         d="m 1216.6591,185.85838 c 0,0 18.0972,24.5722 14.7993,29.24046 -3.298,4.66826 -3.4144,28.68445 -1.7125,31.52102 1.7019,2.83657 6.7281,2.67445 7.2954,8.34746 0.5673,5.67301 -2.7347,13.12643 -4.4367,23.90521 -1.7019,10.77879 11.9134,43.68148 13.6154,53.32566 1.7019,9.64419 7.94,22.69447 7.94,22.69447 l -0.076,0.0127 -32.3442,-65.95309 0.1171,-36.52947 c -1.2294,-11.73762 -8.455,-32.83892 -10.4251,-46.88133 z"
         style="opacity:1;fill:#f9e8d9;fill-opacity:0.56388891;stroke:none;stroke-width:1;stroke-linecap:round;stroke-linejoin:round;stroke-miterlimit:4;stroke-dasharray:none;stroke-opacity:1" />
      <path
         sodipodi:nodetypes="czcccccc"
         inkscape:connector-curvature="0"
         id="path8272"
         d="m 1376.4628,145.3247 c 0,0 -7.8749,74.4424 -6.1118,91.06384 1.7632,16.62144 21.4973,71.60583 -2.7282,101.4833 -7.375,36.30765 39.7114,-18.72112 39.7114,-18.72112 l -5.1057,-42.5479 -1.1347,-53.32668 -8.5095,-30.06728 z"
         style="opacity:1;fill:#efaf8b;fill-opacity:0.66388885;stroke:none;stroke-width:1;stroke-linecap:round;stroke-linejoin:round;stroke-miterlimit:4;stroke-dasharray:none;stroke-opacity:1" />
      <path
         inkscape:connector-curvature="0"
         id="path8274"
         d="m 1276.6626,239.21924 c 0,0 -27.7781,-12.94173 -36.3806,-12.97553 -8.6026,-0.0344 -12.299,6.69574 -12.299,6.69574 l 0,0 c 0,0 1.2317,-13.69762 13.8524,-13.26547 12.6207,0.43229 34.8272,19.54526 34.8272,19.54526 z"
         style="fill:#231103;fill-opacity:1;fill-rule:evenodd;stroke:#231103;stroke-width:3.8266511;stroke-linecap:round;stroke-linejoin:round;stroke-miterlimit:4;stroke-dasharray:none;stroke-opacity:1"
         sodipodi:nodetypes="csccsc" />
      <path
         sodipodi:nodetypes="sssss"
         inkscape:connector-curvature="0"
         id="path8276"
         d="m 1241.2316,251.29309 c 0,5.16369 6.6475,9.34966 14.8477,9.34966 8.2002,0 19.5034,-2.24675 19.5034,-7.41044 0,-5.16368 -11.3032,-11.28875 -19.5034,-11.28875 -8.2002,0 -14.8477,4.18598 -14.8477,9.34953 z"
         style="opacity:1;fill:#f9e8d9;fill-opacity:0.56388891;stroke:none;stroke-width:1;stroke-linecap:round;stroke-linejoin:round;stroke-miterlimit:4;stroke-dasharray:none;stroke-opacity:1" />
      <path
         sodipodi:nodetypes="cscsc"
         inkscape:connector-curvature="0"
         id="path8278"
         d="m 1274.3947,257.39392 c 0,0 -9.9629,2.49881 -17.7909,2.35186 -7.8281,-0.14694 -15.8933,-4.40957 -15.8933,-4.40957 0,0 4.0326,6.46742 15.8932,6.1734 11.8607,-0.29388 17.791,-4.11569 17.791,-4.11569 z"
         style="fill:#0d0d0d;fill-opacity:1;fill-rule:evenodd;stroke:none;stroke-width:0.5;stroke-linecap:round;stroke-linejoin:round;stroke-miterlimit:4;stroke-dasharray:none;stroke-opacity:1" />
      <path
         sodipodi:nodetypes="cscsc"
         inkscape:connector-curvature="0"
         id="path8280"
         d="m 1278.1901,248.93141 c 0,0 -9.2513,-10.91182 -23.2468,-11.3862 -10.1971,-0.34567 -21.5864,10.43732 -21.5864,10.43732 0,0 7.828,-12.09783 19.9259,-12.09783 17.0793,0 24.9073,13.04671 24.9073,13.04671 z"
         style="fill:#0d0d0d;fill-opacity:1;fill-rule:evenodd;stroke:none;stroke-width:1px;stroke-linecap:butt;stroke-linejoin:miter;stroke-opacity:1" />
      <ellipse
         ry="8.1404161"
         rx="8.2407913"
         cy="250.35468"
         cx="-1260.3683"
         id="ellipse8282"
         style="opacity:1;fill:#111111;fill-opacity:1;stroke:none;stroke-width:0.41130823;stroke-linecap:round;stroke-linejoin:round;stroke-miterlimit:4;stroke-dasharray:none;stroke-dashoffset:4;stroke-opacity:1"
         transform="scale(-1,1)" />
      <circle
         r="3.0401504"
         cy="250.35468"
         cx="-1260.3683"
         id="circle8284"
         style="opacity:1;fill:#0d0d0d;fill-opacity:1;stroke:none;stroke-width:0.41342348;stroke-linecap:round;stroke-linejoin:round;stroke-miterlimit:4;stroke-dasharray:none;stroke-dashoffset:4;stroke-opacity:1"
         transform="scale(-1,1)" />
      <circle
         r="1.7790962"
         cy="252.37094"
         cx="-1263.4338"
         id="circle8286"
         style="opacity:1;fill:#ffffff;fill-opacity:1;stroke:none;stroke-width:0.5;stroke-linecap:round;stroke-linejoin:round;stroke-miterlimit:4;stroke-dasharray:none;stroke-dashoffset:4;stroke-opacity:1"
         transform="scale(-1,1)" />
      <path
         sodipodi:nodetypes="csccscc"
         style="fill:#231103;fill-opacity:1;fill-rule:evenodd;stroke:#231103;stroke-width:3.8266511;stroke-linecap:round;stroke-linejoin:round;stroke-miterlimit:4;stroke-dasharray:none;stroke-opacity:1"
         d="m 1360.4595,243.99937 c 0,0 -26.9123,-12.90602 -36.9994,-14.1669 -10.0872,-1.26088 -19.0563,-3.8977 -19.0563,-3.8977 l 0.1432,0.28649 c 0,0 5.6768,8.50282 20.5333,9.90439 14.8566,1.40158 38.7936,10.55646 38.7936,10.55646 z"
         id="path8288"
         inkscape:connector-curvature="0" />
      <path
         sodipodi:nodetypes="sssss"
         inkscape:connector-curvature="0"
         id="path8290"
         d="m 1316.8131,254.8603 c 0,3.87895 7.3344,7.19895 15.7212,7.19895 8.3868,0 17.1222,-3.02025 17.1222,-6.89907 0,-3.87895 -9.2361,-8.20115 -17.6228,-8.20115 -8.3868,0 -15.2206,4.02245 -15.2206,7.90127 z"
         style="opacity:1;fill:#f9e8d9;fill-opacity:0.56388891;stroke:none;stroke-width:1;stroke-linecap:round;stroke-linejoin:round;stroke-miterlimit:4;stroke-dasharray:none;stroke-opacity:1" />
      <path
         style="fill:#0d0d0d;fill-opacity:1;fill-rule:evenodd;stroke:none;stroke-width:0.5;stroke-linecap:round;stroke-linejoin:round;stroke-miterlimit:4;stroke-dasharray:none;stroke-opacity:1"
         d="m 1316.1539,257.56179 c 0,0 9.7178,3.32676 17.5305,3.83787 7.8127,0.51099 16.2075,-3.05915 16.2075,-3.05915 0,0 -4.5616,6.10593 -16.3556,4.81673 -11.794,-1.2892 -17.3824,-5.59545 -17.3824,-5.59545 z"
         id="path8292"
         inkscape:connector-curvature="0"
         sodipodi:nodetypes="cscsc" />
      <path
         style="fill:#0d0d0d;fill-opacity:1;fill-rule:evenodd;stroke:none;stroke-width:1px;stroke-linecap:butt;stroke-linejoin:miter;stroke-opacity:1"
         d="m 1309.3645,249.75478 c 0,0 11.0765,-9.54609 24.6494,-6.09981 11.4134,2.89792 21.5864,10.43732 21.5864,10.43732 0,0 -6.2063,-7.638 -19.9259,-12.09783 -16.2427,-5.28001 -26.3099,7.76032 -26.3099,7.76032 z"
         id="path8294"
         inkscape:connector-curvature="0"
         sodipodi:nodetypes="cscsc" />
      <path
         sodipodi:nodetypes="sssss"
         inkscape:connector-curvature="0"
         id="path8296"
         d="m 1342.9952,253.41931 c 0,4.4958 -3.6895,8.14031 -8.2408,8.14031 -4.5512,0 -8.2407,-3.64451 -8.2407,-8.14031 0,-4.49593 2.6077,-7.60458 7.159,-7.60458 4.5513,0 9.3225,3.10865 9.3225,7.60458 z"
         style="opacity:1;fill:#111111;fill-opacity:1;stroke:none;stroke-width:0.41130823;stroke-linecap:round;stroke-linejoin:round;stroke-miterlimit:4;stroke-dasharray:none;stroke-dashoffset:4;stroke-opacity:1" />
      <circle
         style="opacity:1;fill:#0d0d0d;fill-opacity:1;stroke:none;stroke-width:0.41342348;stroke-linecap:round;stroke-linejoin:round;stroke-miterlimit:4;stroke-dasharray:none;stroke-dashoffset:4;stroke-opacity:1"
         id="circle8298"
         cx="1334.7544"
         cy="253.41916"
         r="3.0401504" />
      <circle
         style="opacity:1;fill:#ffffff;fill-opacity:1;stroke:none;stroke-width:0.5;stroke-linecap:round;stroke-linejoin:round;stroke-miterlimit:4;stroke-dasharray:none;stroke-dashoffset:4;stroke-opacity:1"
         id="circle8300"
         cx="1337.9508"
         cy="256.13126"
         r="1.7790962" />
      <path
         sodipodi:nodetypes="cscsc"
         inkscape:connector-curvature="0"
         id="path8302"
         d="m 1315.0992,253.31152 c 0,0 6.4671,-7.23798 17.4026,-5.29838 7.9142,1.40362 19.8142,6.14191 19.8142,6.14191 0,0 -7.9688,-7.37906 -19.5169,-9.21433 -11.723,-1.86319 -17.6999,8.3708 -17.6999,8.3708 z"
         style="fill:#0d0d0d;fill-opacity:1;fill-rule:evenodd;stroke:none;stroke-width:0.5;stroke-linecap:round;stroke-linejoin:round;stroke-miterlimit:4;stroke-dasharray:none;stroke-opacity:1" />
      <path
         sodipodi:nodetypes="cscsc"
         inkscape:connector-curvature="0"
         id="path8304"
         d="m 1278.2031,281.25654 c 0,0 -9.1564,21.97543 -8.6986,27.01156 0.4578,5.036 13.2768,15.56593 13.2768,15.56593 0,0 -16.9394,-10.52993 -16.9394,-16.48164 0,-5.95172 12.3612,-26.09585 12.3612,-26.09585 z"
         style="fill:#0d0d0d;fill-opacity:1;fill-rule:evenodd;stroke:none;stroke-width:1px;stroke-linecap:butt;stroke-linejoin:miter;stroke-opacity:1" />
      <path
         inkscape:connector-curvature="0"
         id="path8306"
         d="m 1312.5397,298.19597 c 0,0 5.0361,10.07213 4.5783,12.81903 -0.4579,2.7469 -4.5783,5.95172 -4.5783,5.95172 0,0 1.8313,-5.03613 1.3735,-8.24082 -0.4578,-3.20482 -1.3735,-10.52993 -1.3735,-10.52993 z"
         style="fill:#0d0d0d;fill-opacity:1;fill-rule:evenodd;stroke:none;stroke-width:1px;stroke-linecap:butt;stroke-linejoin:miter;stroke-opacity:1" />
      <path
         sodipodi:nodetypes="cscsc"
         inkscape:connector-curvature="0"
         id="path8308"
         d="m 1292.803,320.33137 c 0,0 3.0865,-5.44137 7.3603,-4.98792 4.2738,0.45346 4.3788,3.17408 4.3788,3.17408 0,0 -1.3706,-1.15756 -4.235,-1.10832 -2.937,0.0497 -7.5041,3.07331 -7.5041,2.92216 z"
         style="fill:#0d0d0d;fill-opacity:1;fill-rule:evenodd;stroke:none;stroke-width:1px;stroke-linecap:butt;stroke-linejoin:miter;stroke-opacity:1" />
      <g
         id="g8310"
         transform="matrix(1.2755504,0,0,1.2755504,1474.9543,-157.8018)">
        <path
           style="fill:#090909;fill-opacity:1;fill-rule:evenodd;stroke:none;stroke-width:1px;stroke-linecap:butt;stroke-linejoin:miter;stroke-opacity:1"
           d="m -108.20669,397.77581 -31.96726,3.11143 -26.21229,-3.17217 16.64541,-3.39694 8.02863,3.17875 10.21401,-4.28878 z"
           id="path8312"
           inkscape:connector-curvature="0"
           sodipodi:nodetypes="ccccccc" />
        <path
           style="fill:#090909;fill-opacity:1;fill-rule:evenodd;stroke:none;stroke-width:1px;stroke-linecap:butt;stroke-linejoin:miter;stroke-opacity:1"
           d="m -109.69924,397.65943 c 0.47808,-0.28685 2.10356,-3.05973 2.10356,-3.05973 l -0.0956,5.64137 c 0,0 -0.38247,-2.29479 -2.00794,-2.58164 z"
           id="path8314"
           inkscape:connector-curvature="0" />
        <path
           style="fill:#090909;fill-opacity:1;fill-rule:evenodd;stroke:none;stroke-width:1px;stroke-linecap:butt;stroke-linejoin:miter;stroke-opacity:1"
           d="m -165.15685,397.65943 c 0,0 -1.05304,-0.50231 -1.84554,-1.50196 -0.74389,-0.93833 1.17621,4.75293 1.17621,4.75293 0,0 -0.31886,-2.91929 0.66933,-3.25097 z"
           id="path8316"
           inkscape:connector-curvature="0"
           sodipodi:nodetypes="cscc" />
        <path
           style="fill:#111111;fill-opacity:1;fill-rule:evenodd;stroke:none;stroke-width:1px;stroke-linecap:butt;stroke-linejoin:miter;stroke-opacity:1"
           d="m -121.45693,407.71971 c -1.3774,0.25826 -10.7986,0.40736 -16.48031,0.40736 -5.6817,0 -16.66295,-1.95694 -16.66295,-1.95694 0,0 11.15344,4.10911 18.55687,3.93693 7.40342,-0.17218 14.58639,-2.38735 14.58639,-2.38735 z"
           id="path8318"
           inkscape:connector-curvature="0"
           sodipodi:nodetypes="cscsc" />
        <path
           style="fill:#090909;fill-opacity:1;fill-rule:evenodd;stroke:#000000;stroke-width:1.3290683px;stroke-linecap:butt;stroke-linejoin:miter;stroke-opacity:1"
           d="M -101.71433,401.28974 Z"
           id="path8320"
           inkscape:connector-curvature="0" />
      </g>
      <path
         style="fill:#0d0d0d;fill-opacity:1;fill-rule:evenodd;stroke:none;stroke-width:0.5;stroke-linecap:round;stroke-linejoin:round;stroke-miterlimit:4;stroke-dasharray:none;stroke-opacity:1"
         d="m 1276.184,250.07112 c 0,0 -9.1682,-5.60949 -16.9294,-6.65723 -7.7612,-1.04786 -22.1627,6.67406 -22.1627,6.67406 0,0 11.0059,-11.89234 22.6288,-9.48218 11.6229,2.41002 16.4633,9.46535 16.4633,9.46535 z"
         id="path8326"
         inkscape:connector-curvature="0"
         sodipodi:nodetypes="cscsc" />
      <path
         style="fill:#231103;fill-opacity:1;fill-rule:evenodd;stroke:#070707;stroke-width:3;stroke-linecap:butt;stroke-linejoin:miter;stroke-miterlimit:4;stroke-dasharray:none;stroke-opacity:1"
         d="m 1315.0444,73.738012 c -49.6443,0 -59.5722,19.85828 -59.5722,19.85828 0,0 -39.2433,0.94518 -56.737,55.790278 -8.8755,27.82574 4.1585,64.91212 5.6752,70.37951 2.5031,9.02375 8.5089,21.34455 9.4545,35.52854 0.9456,14.18412 7.262,48.319 7.262,48.319 1.7848,5.82897 3.0361,8.67172 3.5373,13.05095 1.3319,11.62544 2.1064,14.7589 3.4335,20.73124 5.2705,23.71841 45.297,73.14733 45.297,73.14733 0,0 7.9069,8.78471 45.6807,11.42013 37.7737,2.63541 87.7107,-66.70708 94.7384,-80.76237 7.0277,-14.05542 5.5058,-29.31546 4.6273,-38.10005 -0.8785,-8.78459 -16.7918,-53.31852 -15.0349,-68.25241 0.8427,-7.1626 6.1318,-13.498 11.4077,-18.17162 7.6215,-1.6179 19.2608,-2.94448 24.1682,2.70812 7.7784,8.9596 3.3721,23.66083 -2.439,36.281 l -3.9699,7.83175 c 0,0 14.8579,-20.4972 24.3139,-43.73161 9.4561,-23.23428 6.6188,-55.25047 -4.7285,-81.72732 -11.3473,-26.47698 -25.5314,-35.93149 -45.3891,-48.224348 -19.8578,-12.29286 -63.3412,-16.0764 -91.7251,-16.0764 z m 61.5752,97.883568 c 0.5117,9.81816 0.4244,26.0563 3.5875,32.93752 4.4611,9.70528 17.048,8.49542 17.048,8.49542 0,0 -0.6168,32.50013 0.2616,49.19096 0.8785,16.6907 -5.497,31.56541 -22.2847,54.04137 -11.7563,15.73991 -23.4956,22.36703 -23.4956,22.36703 0,0 -8.9425,-4.53853 -21.2409,-10.68771 -12.2984,-6.1493 -20.4636,-4.65129 -20.4636,-4.65129 0,0 -29.339,2.18336 -32.8529,3.06183 -3.5138,0.87847 -26.5723,16.88357 -26.5723,16.88357 0,0 -7.3272,-5.83195 -16.7441,-26.71424 -4.7235,-10.47469 -8.3008,-12.58802 -10.7799,-32.93267 -0.3515,-19.75457 -1.2358,-46.78566 -3.5426,-63.84729 -1.5929,-11.78149 2.1169,-19.09295 3.9437,-21.8836 0.055,-0.0128 0.1089,-0.0128 0.1644,-0.0153 9.0668,-1.13332 18.1331,-4.15523 30.2221,-7.17752 3.3576,-0.83931 7.803,-2.98109 12.4591,-5.60795 8.1253,-0.61099 21.055,-2.2761 36.6646,-7.40917 -0.3905,0.65819 -0.8044,1.27517 -1.2706,1.78386 -5.2008,5.67365 -26.1961,12.67081 -26.1961,12.67081 0,0 -5.6536,1.52288 4.7285,0.94416 9.2898,-0.51787 28.082,-2.48222 50.5611,-11.69169 7.0621,-0.48038 17.5048,-1.51778 29.7836,-3.8565 5.8844,-1.12096 11.2613,-3.30483 16.0191,-5.90198 z m -77.1783,166.93511 c 10.0167,0.0319 20.4182,0.41761 27.6561,1.0638 9.6198,0.85896 18.8716,4.39466 18.8716,4.39466 0,0 -12.4149,23.13057 -33.6326,25.8225 -5.0323,0.63828 -8.0848,-1.99573 -12.7157,-3.04194 -1.6446,-0.37157 -11.8244,1.86613 -13.3958,1.36778 -18.0889,-5.73705 -30.4687,-16.63458 -30.4687,-16.63458 0,0 6.9773,-10.35747 18.351,-11.90842 5.6869,-0.77553 15.3175,-1.0962 25.3341,-1.0638 z"
         id="path8328"
         inkscape:connector-curvature="0"
         sodipodi:nodetypes="scsssccscsssscsccsssscscsscscscscsccsccscscsccccssscscc" />
      <path
         inkscape:connector-curvature="0"
         id="path8330"
         d="m 1413.9518,284.41208 c -1.1617,11.31464 -8.1058,27.07704 -14.3476,37.29101 -18.2074,29.79393 -43.0348,61.24453 -59.587,71.17584 -11.899,7.13951 -37.9944,16.15294 -71.8181,11.75114 2.695,3.47409 4.6388,5.9137 4.6388,5.9137 0,0 7.9065,8.78472 45.6802,11.42001 37.7738,2.63541 87.7105,-67.01806 94.7381,-81.07348 7.0277,-14.05541 5.5063,-29.94137 4.6278,-38.72596 -0.194,-1.94024 0.026,-12.15834 -3.9322,-17.75226 z"
         style="opacity:1;fill:#090401;fill-opacity:0.59722218;stroke:none;stroke-width:2;stroke-linecap:round;stroke-linejoin:round;stroke-miterlimit:4;stroke-dasharray:none;stroke-opacity:1"
         sodipodi:nodetypes="cssccsssc" />
      <path
         style="opacity:1;fill:#2f1604;fill-opacity:1;stroke:none;stroke-width:3;stroke-linecap:round;stroke-linejoin:round;stroke-miterlimit:4;stroke-dasharray:none;stroke-dashoffset:4;stroke-opacity:1"
         id="path8332"
         d="m 1379.6293,124.65607 c -2.0089,3.45164 -4.3921,6.66411 -6.863,9.79444 -4.1277,4.96533 -8.8803,9.35029 -13.8035,13.50808 -4.7935,4.13099 -10.136,7.50929 -15.5824,10.69459 -4.2454,2.50697 -8.4759,5.09226 -13.0406,6.98862 -2.3624,0.98141 -4.7908,1.75656 -7.23,2.51768 -3.1335,1.10118 -6.4356,1.58041 -9.6153,2.50327 -0.2724,0.0816 -0.5448,0.16378 -0.8171,0.24567 0,0 5.4627,-4.20524 5.4627,-4.20524 l 0,0 c 0.2647,-0.0714 0.5294,-0.14197 0.7941,-0.21301 3.1369,-0.75768 6.3217,-1.33359 9.3878,-2.36564 3.2846,-1.03945 6.5125,-2.16257 9.6154,-3.6755 0.8396,-0.40932 3.192,-1.90325 2.4885,-1.28869 -0.9005,0.78663 -2.062,1.21114 -3.093,1.81677 1.1485,-0.66558 4.1824,-2.41143 5.2858,-3.10035 3.6257,-2.26372 7.0866,-4.79186 10.3832,-7.51019 4.9181,-4.0912 9.6505,-8.42743 13.7609,-13.34647 2.3821,-3.0168 4.6796,-6.11524 6.5271,-9.49583 0,0 6.3394,-2.8682 6.3394,-2.8682 z"
         inkscape:connector-curvature="0" />
      <path
         style="opacity:1;fill:#2f1604;fill-opacity:1;stroke:none;stroke-width:3;stroke-linecap:round;stroke-linejoin:round;stroke-miterlimit:4;stroke-dasharray:none;stroke-dashoffset:4;stroke-opacity:1"
         id="path8334"
         d="m 1341.6556,119.37376 c -0.3374,2.1169 -0.9803,4.14235 -1.9684,6.041 -1.2884,2.42113 -3.4389,4.16162 -5.4812,5.92098 -3.1274,2.68172 -6.5399,4.99327 -10.043,7.14921 -3.5549,2.1442 -7.1682,4.19184 -10.787,6.22507 -0.4862,0.27322 -0.9925,0.50919 -1.4835,0.77374 -0.4529,0.24389 -1.7951,1.00552 -1.3479,0.7513 1.4963,-0.85066 2.9969,-1.69367 4.4954,-2.54064 -2.5987,1.58003 -4.9454,3.49833 -7.2386,5.48308 -1.7941,1.41459 -3.2426,3.17191 -4.8094,4.81457 -2.9498,2.89677 -6.8607,4.70665 -10.3721,6.73886 -3.1503,1.81128 2.8705,-1.66306 4.3149,-2.47865 0.2385,-0.13457 -0.4646,0.28993 -0.6928,0.44134 -0.5801,0.38496 -1.1445,0.79594 -1.7064,1.2068 -0.8595,0.72502 -1.7565,1.40336 -2.5823,2.16703 -1.0151,1.09634 -2.1102,2.11282 -3.1966,3.13696 -0.1626,0.15434 -0.3252,0.30868 -0.4878,0.46315 0,0 -6.4045,2.63465 -6.4045,2.63465 l 0,0 c 0.1629,-0.15574 0.3258,-0.31149 0.4887,-0.46723 1.0799,-1.01955 2.2119,-1.99343 3.1958,-3.1075 0.7614,-0.85449 1.6939,-1.49826 2.547,-2.25326 2.9866,-2.45786 6.5821,-4.06084 9.8634,-6.06371 -10.2868,5.97519 -3.3089,2.19203 -1.3177,0.21468 1.657,-1.60235 3.0383,-3.47792 4.8794,-4.89722 2.2944,-2.00542 4.6186,-3.97385 7.2137,-5.58845 2.3574,-1.38256 4.7077,-2.77763 7.0723,-4.14783 0.439,-0.25435 0.8903,-0.48675 1.3379,-0.72566 0.4825,-0.25766 1.917,-1.05271 1.4523,-0.76418 -8.785,5.45553 -2.5229,1.33218 -0.629,0.37807 3.4889,-2.10683 6.8927,-4.36608 9.9993,-7.01527 1.9881,-1.70299 4.1295,-3.37651 5.482,-5.65656 1.0289,-1.77505 1.7268,-3.6982 1.9591,-5.74865 0,0 6.247,-3.08568 6.247,-3.08568 z"
         inkscape:connector-curvature="0" />
      <path
         style="opacity:1;fill:#2f1604;fill-opacity:1;stroke:none;stroke-width:3;stroke-linecap:round;stroke-linejoin:round;stroke-miterlimit:4;stroke-dasharray:none;stroke-dashoffset:4;stroke-opacity:1"
         id="path8336"
         d="m 1349.6124,126.46684 c -0.9047,2.85264 -1.8622,5.69099 -3.2923,8.33164 -0.4432,0.81839 -0.9407,1.60617 -1.411,2.40939 -2.4354,3.69667 -5.3152,7.09639 -8.4569,10.21205 -1.9495,1.93323 -3.3314,3.08518 -5.3987,4.89429 -4.1141,3.51707 -8.6139,6.53388 -13.3107,9.21177 -8.8052,5.02018 -6.7495,3.91096 -13.1106,7.12982 -6.2938,3.07586 -12.8859,5.5105 -19.538,7.68761 -2.5332,0.84148 -1.3481,0.41762 -3.5615,1.25425 0,0 5.3143,-4.15013 5.3143,-4.15013 l 0,0 c 2.14,-0.73727 0.9949,-0.35677 3.4388,-1.13078 6.5461,-2.10453 13.0288,-4.47807 19.193,-7.54284 1.3048,-0.66571 2.5599,-1.43933 3.9143,-1.997 0.5413,-0.22284 -1.9713,1.25884 -1.4544,0.98409 4.728,-2.51296 9.0932,-5.67722 13.2305,-9.05679 1.9269,-1.67046 3.5751,-3.04742 5.3973,-4.83179 3.1137,-3.04933 5.9546,-6.39293 8.3799,-10.01485 1.0677,-1.81588 1.6159,-2.62394 2.4582,-4.51316 0.8402,-1.88475 1.3843,-3.88341 1.9257,-5.86829 0,0 6.2821,-3.00928 6.2821,-3.00928 z"
         inkscape:connector-curvature="0" />
      <path
         style="opacity:1;fill:#2f1604;fill-opacity:1;stroke:none;stroke-width:3;stroke-linecap:round;stroke-linejoin:round;stroke-miterlimit:4;stroke-dasharray:none;stroke-dashoffset:4;stroke-opacity:1"
         id="path8338"
         d="m 1284.7295,164.67493 c -3.9691,2.11882 -8.1436,3.80981 -12.3274,5.44864 -6.3011,2.43579 -12.6844,4.63892 -18.9463,7.17561 -4.5793,1.79266 -8.9627,3.98712 -13.2261,6.4261 -1.8771,1.13536 -3.8625,2.06282 -5.8735,2.92981 0,0 5.3522,-4.23304 5.3522,-4.23304 l 0,0 c 1.9514,-0.84812 3.8615,-1.78437 5.6907,-2.87586 4.2397,-2.37763 8.6057,-4.49517 13.1444,-6.24892 6.2572,-2.49141 12.635,-4.65449 18.8971,-7.13365 4.3382,-1.74508 8.6492,-3.57409 12.7414,-5.85018 0,0 -5.4525,4.36149 -5.4525,4.36149 z"
         inkscape:connector-curvature="0" />
      <path
         style="opacity:1;fill:#2f1604;fill-opacity:1;stroke:none;stroke-width:3;stroke-linecap:round;stroke-linejoin:round;stroke-miterlimit:4;stroke-dasharray:none;stroke-dashoffset:4;stroke-opacity:1"
         id="path8340"
         d="m 1264.5835,155.33637 c -3.4669,2.1016 -1.6041,0.98524 -8.5866,4.96151 -0.688,0.39172 -2.7553,1.56012 -2.0763,1.1531 7.9958,-4.79429 -0.6409,0.56685 -1.8475,1.33218 -4.2898,2.78746 -8.5642,5.62709 -12.4073,9.02057 -0.7528,0.66469 -1.4692,1.36955 -2.2038,2.0544 -4.2806,4.19426 -7.8681,8.9962 -11.4159,13.80426 -2.102,2.96795 -4.1583,5.96945 -6.1532,9.01061 0,0 -6.1583,2.69626 -6.1583,2.69626 l 0,0 c 2.0603,-3.0742 4.2,-6.0947 6.3265,-9.12312 3.5781,-4.82311 7.1684,-9.65885 11.4127,-13.92862 0.7327,-0.69684 1.4462,-1.41421 2.198,-2.09025 3.8171,-3.43238 8.0788,-6.29777 12.3674,-9.09812 0.7075,-0.45167 4.2738,-2.73758 5.0236,-3.18147 2.6481,-1.56766 5.3185,-3.09742 7.9832,-4.63663 0.7144,-0.41264 2.863,-1.64036 2.1538,-1.21892 -1.3669,0.81202 -2.7533,1.59087 -4.127,2.39128 -0.3546,0.20664 0.713,-0.40652 1.0696,-0.60984 0,0 6.4411,-2.5372 6.4411,-2.5372 z"
         inkscape:connector-curvature="0" />
      <path
         style="opacity:1;fill:#2f1604;fill-opacity:1;stroke:none;stroke-width:3;stroke-linecap:round;stroke-linejoin:round;stroke-miterlimit:4;stroke-dasharray:none;stroke-dashoffset:4;stroke-opacity:1"
         id="path8342"
         d="m 1217.4766,178.27383 c -0.2575,2.84919 -0.5981,5.68729 -1.0041,8.5194 -0.4803,3.47064 -0.7926,6.96425 -1.0623,10.45709 -0.1869,2.51015 -0.2546,5.0272 -0.2697,7.5436 6e-4,1.60707 0.3277,3.17038 0.7657,4.70717 0,0 -6.075,3.30686 -6.075,3.30686 l 0,0 c -0.4401,-1.60541 -0.808,-3.22842 -0.8177,-4.90411 0.063,-2.55186 0.174,-5.10194 0.3764,-7.64705 0.2972,-3.50228 0.5847,-7.008 1.0433,-10.49319 0.3939,-2.78631 0.7774,-5.58015 0.8232,-8.39809 0,0 6.2202,-3.09168 6.2202,-3.09168 z"
         inkscape:connector-curvature="0" />
      <path
         style="opacity:1;fill:#2f1604;fill-opacity:1;stroke:none;stroke-width:3;stroke-linecap:round;stroke-linejoin:round;stroke-miterlimit:4;stroke-dasharray:none;stroke-dashoffset:4;stroke-opacity:1"
         id="path8344"
         d="m 1401.348,169.26627 c -0.7382,2.4173 -1.1708,4.91215 -1.4918,7.41465 -0.3401,2.96578 -0.6139,5.9331 -0.7575,8.91495 -0.096,2.77101 -0.2024,5.54852 0.1667,8.30332 0.2134,1.33487 0.8585,2.50595 1.516,3.66428 0.7013,1.2082 1.4003,2.42099 2.0206,3.67333 0.3569,0.84492 0.1919,0.43598 0.4979,1.22555 0,0 -6.0693,3.36605 -6.0693,3.36605 l 0,0 c -0.2629,-0.76253 -0.1174,-0.37145 -0.4406,-1.1716 -0.614,-1.24111 -1.307,-2.44319 -2.0205,-3.62919 -0.7025,-1.24532 -1.3691,-2.50085 -1.571,-3.93992 -0.339,-2.81093 -0.2053,-5.64023 -0.1063,-8.46328 0.1086,-2.99129 0.3124,-5.9706 0.6843,-8.94148 0.3112,-2.48873 0.719,-4.96419 1.2895,-7.40725 0,0 6.2821,-3.00941 6.2821,-3.00941 z"
         inkscape:connector-curvature="0" />
      <path
         style="opacity:1;fill:#2f1604;fill-opacity:1;stroke:none;stroke-width:3;stroke-linecap:round;stroke-linejoin:round;stroke-miterlimit:4;stroke-dasharray:none;stroke-dashoffset:4;stroke-opacity:1"
         id="path8346"
         d="m 1344.8926,136.76704 c -1.1974,2.44012 -2.914,4.54988 -4.5865,6.67189 -2.1538,2.57738 -4.4415,5.05258 -6.9831,7.25456 -2.0605,1.78539 -2.7501,2.22469 -4.9578,3.85038 -6.8596,4.52744 -13.9981,8.67145 -21.37,12.31047 -2.7933,1.52772 -5.8547,2.46653 -8.7258,3.81376 -0.2,0.11863 -0.8018,0.47004 -0.6001,0.35461 1.7882,-1.02274 7.1353,-4.12131 5.3596,-3.07689 -3.2018,1.88335 -5.2154,3.17612 -8.1754,4.47782 -1.6649,0.9457 -3.481,1.51357 -5.3074,2.05122 -2.3862,0.68701 -4.7795,1.36432 -7.2273,1.79431 -1.7164,0.27233 -3.4559,0.44555 -5.1305,0.92235 -1.8793,0.52196 -3.7159,1.18894 -5.6071,1.66613 -1.4894,0.32042 -2.9353,0.80461 -4.4139,1.1656 -1.2789,0.44299 -2.5655,0.81252 -3.901,1.03919 -1.1173,0.30626 -2.2528,0.54019 -3.4047,0.6652 -0.279,0.0574 -0.5671,0 -0.8469,0.0446 -2.2109,0.31519 -7.4052,3.89859 4.5175,-2.83453 -0.5462,0.3069 -0.7276,0.8212 -0.8547,1.3966 -0.166,0.75653 -0.6118,1.39954 -1.0028,2.05479 -2.4466,2.58171 -5.975,4.22755 -9.3956,5.21075 -2.6608,0.65958 -5.29,1.43882 -7.9536,2.08603 -2.9818,0.67681 -5.9356,1.46791 -8.9192,2.1368 -2.4734,0.65589 -5.0122,0.94404 -7.5583,1.11254 -1.8939,0.0625 -3.793,0.17271 -5.6614,0.50129 -1.8573,0.22756 -3.6895,0.59721 -5.5251,0.95105 -1.7651,0.31621 -3.5161,0.6777 -5.2992,0.8837 0,0 5.5418,-4.12908 5.5418,-4.12908 l 0,0 c 1.7576,-0.22246 3.4895,-0.58573 5.233,-0.89595 1.8469,-0.36315 3.6998,-0.68816 5.5646,-0.94684 1.873,-0.24835 3.7566,-0.35499 5.6442,-0.41787 2.5176,-0.18776 5.016,-0.53446 7.4638,-1.17083 2.9704,-0.67374 5.9207,-1.43078 8.8852,-2.12966 2.6845,-0.68395 5.3526,-1.43499 8.0171,-2.19254 0.7487,-0.26633 0.9506,-0.31774 1.6508,-0.64084 0.2143,-0.0995 0.835,-0.43993 0.6324,-0.31863 -9.4346,5.64839 -6.7002,4.05421 -4.7392,2.72049 0.4835,-0.49159 0.8231,-1.18689 1.1116,-1.80528 0.2056,-0.63676 0.187,-1.32058 0.6601,-1.86639 5.0337,-2.88886 4.6658,-3.59335 8.4213,-3.91772 1.1244,-0.16391 2.2284,-0.41991 3.3368,-0.66763 1.318,-0.27666 2.5849,-0.72157 3.8823,-1.07835 1.4523,-0.38419 2.8952,-0.80461 4.3615,-1.13511 1.8878,-0.52846 3.7436,-1.16585 5.6359,-1.68054 1.6896,-0.38776 3.417,-0.5754 5.1261,-0.85895 2.417,-0.46379 4.7934,-1.11394 7.1462,-1.83284 1.8403,-0.59032 3.6309,-1.27708 5.342,-2.18374 0.3252,-0.14682 0.8494,-0.3791 1.1761,-0.54237 0.1684,-0.0842 0.6616,-0.35957 0.499,-0.26455 -11.508,6.71999 -2.2781,1.18002 1.7205,-0.92758 2.8285,-1.15335 5.7036,-2.20172 8.4212,-3.61159 0.8063,-0.40192 1.6186,-0.79199 2.4189,-1.20578 0.8614,-0.44529 3.1807,-2.1206 2.5655,-1.37109 -0.6975,0.84978 -2.0708,0.89863 -2.8303,1.69368 -0.7266,0.76074 1.8222,-1.05207 2.7282,-1.58678 3.1674,-1.86945 2.3019,-1.35426 5.3943,-3.38876 2.164,-1.56421 2.9176,-2.04101 4.9346,-3.76428 2.5026,-2.1382 4.7343,-4.56455 6.8496,-7.08007 1.5913,-2.04343 3.3021,-4.04694 4.3737,-6.42813 0,0 6.3615,-2.87815 6.3615,-2.87815 z"
         inkscape:connector-curvature="0" />
      <path
         style="opacity:1;fill:#2f1604;fill-opacity:1;stroke:none;stroke-width:3;stroke-linecap:round;stroke-linejoin:round;stroke-miterlimit:4;stroke-dasharray:none;stroke-dashoffset:4;stroke-opacity:1"
         id="path8348"
         d="m 1370.2384,159.36826 c -1.7617,1.5878 -3.5102,3.18658 -5.3185,4.72311 -2.9059,2.40505 -5.8875,4.71405 -8.9908,6.85863 -0.5527,0.35626 -1.0903,0.73701 -1.658,1.06878 -3.1847,1.86141 -6.0097,3.67078 -9.2741,5.1244 -1.7714,0.7888 -3.6011,1.40885 -5.4345,2.03297 -3.2089,0.9596 -6.5133,1.5623 -9.8107,2.12762 -3.3622,0.63306 -6.7138,1.3216 -10.1022,1.80057 -2.0445,0.31136 -4.1134,0.36455 -6.1508,0.71239 -0.1708,0.0625 -0.3416,0.12501 -0.5124,0.18687 0,0 5.5096,-4.23546 5.5096,-4.23546 l 0,0 c 0.1817,-0.0357 0.3633,-0.0714 0.545,-0.10715 1.9949,-0.26225 4.0155,-0.2782 6.0053,-0.59785 3.379,-0.49989 6.7251,-1.18435 10.0822,-1.8109 3.2665,-0.58586 6.5466,-1.18422 9.7152,-2.18795 1.8176,-0.63255 3.6219,-1.27287 5.37,-2.084 1.6778,-0.77859 5.7187,-2.99984 -2.165,1.45783 -0.5697,0.3222 1.1074,-0.69785 1.661,-1.04684 3.104,-2.10007 6.0702,-4.38509 8.9592,-6.77177 1.7568,-1.48194 3.5005,-2.98594 5.0864,-4.65015 0,0 6.4831,-2.60174 6.4831,-2.60174 z"
         inkscape:connector-curvature="0" />
      <path
         style="opacity:1;fill:#2f1604;fill-opacity:1;stroke:none;stroke-width:3;stroke-linecap:round;stroke-linejoin:round;stroke-miterlimit:4;stroke-dasharray:none;stroke-dashoffset:4;stroke-opacity:1"
         id="path8350"
         d="m 1220.8195,175.77375 c -0.2801,2.50352 -0.3567,5.02159 -0.5252,7.53327 -0.1519,2.8543 -0.4855,5.69329 -0.7128,8.5416 -0.167,2.29816 -0.2028,4.60295 -0.2167,6.90608 -0.01,1.40923 0.02,2.81833 0.033,4.22743 0.012,0.83562 0.016,1.67123 0.014,2.50697 0,0.87286 0,1.74572 -0.01,2.61858 0,0.93689 -0.01,1.87391 0.01,2.81067 0.01,0.80373 -0.01,1.60732 0,2.41092 7e-4,0.89786 -0.01,1.79546 -0.01,2.69332 -0.01,0.91036 0.01,1.8206 0.01,2.73096 -0.01,0.79275 0,1.58538 0,2.37801 0,0 -6.2215,3.16999 -6.2215,3.16999 l 0,0 c 0,-0.79339 0.01,-1.58665 0,-2.38005 10e-4,-0.91342 0.014,-1.82684 0.01,-2.74039 -7e-4,-0.89416 -0.012,-1.78819 -0.01,-2.68235 0.01,-0.80462 0,-1.60936 0,-2.41411 0.011,-0.93855 0,-1.8771 0,-2.81578 -10e-4,-0.87069 -0.01,-1.74138 -0.01,-2.61207 0,-0.83906 -6e-4,-1.67799 0.01,-2.51692 0.01,-1.4253 0.031,-2.85034 0.043,-4.27551 0.032,-2.32775 0.092,-4.65525 0.2559,-6.97816 0.2199,-2.85327 0.5935,-5.69176 0.7505,-8.55039 0.1562,-2.46424 0.2047,-4.93383 0.3575,-7.39858 0,0 6.2089,-3.16349 6.2089,-3.16349 z"
         inkscape:connector-curvature="0" />
      <path
         style="opacity:1;fill:#2f1604;fill-opacity:1;stroke:none;stroke-width:3;stroke-linecap:round;stroke-linejoin:round;stroke-miterlimit:4;stroke-dasharray:none;stroke-dashoffset:4;stroke-opacity:1"
         id="path8352"
         d="m 1387.7845,159.78268 c 0.019,2.74435 0.2718,5.48053 0.4871,8.21468 0.2213,2.7446 0.6958,5.45782 1.0287,8.18903 0.1916,2.28413 0.2462,4.56201 0.6771,6.81807 0.4268,2.00517 1.0353,3.9713 1.7182,5.90325 0.6857,1.75567 1.5144,3.44947 2.2725,5.17503 0.7498,1.66447 1.5157,3.33684 2.6663,4.76444 0.9471,1.29009 2.0116,2.43898 3.1777,3.52702 0.8639,0.8823 1.8145,1.66932 2.688,2.54026 0.516,0.56966 0.8599,1.26458 1.3266,1.87098 0,0 -6.005,3.55904 -6.005,3.55904 l 0,0 c -0.4252,-0.59262 -0.7595,-1.25042 -1.2471,-1.79636 -0.8702,-0.8615 -1.7906,-1.67033 -2.6513,-2.54217 -1.1739,-1.1235 -2.2278,-2.32992 -3.2053,-3.63111 -1.145,-1.50285 -1.9786,-3.19436 -2.7412,-4.91865 -0.7712,-1.73896 -1.5871,-3.45852 -2.2878,-5.22695 -0.6907,-1.96562 -1.3198,-3.96313 -1.7368,-6.00605 -0.4583,-2.27163 -0.559,-4.55946 -0.7013,-6.86795 -0.2889,-2.75417 -0.7421,-5.4878 -0.9661,-8.24924 -0.2045,-2.72241 -0.4466,-5.44303 -0.7091,-8.1597 0,0 6.2088,-3.16362 6.2088,-3.16362 z"
         inkscape:connector-curvature="0" />
      <path
         inkscape:connector-curvature="0"
         style="opacity:0.59899998;fill:#130901;fill-opacity:1;fill-rule:evenodd;stroke:none;stroke-width:1px;stroke-linecap:butt;stroke-linejoin:miter;stroke-opacity:1"
         d="m 1315.0444,73.738012 c -49.6443,0 -59.5722,19.85828 -59.5722,19.85828 0,0 -39.2433,0.94518 -56.737,55.790278 -2.9498,9.24786 -3.471,19.5149 -2.8078,29.30781 10.2614,-17.48333 26.8753,-42.96679 41.0718,-51.64232 8.4658,-5.17363 35.7428,-17.40182 35.7428,-17.40182 0,0 26.3386,-16.932928 53.1471,-23.047158 17.5383,-3.99987 56.5135,0.23024 81.5804,3.64986 -0.2399,-0.14873 -0.4585,-0.28904 -0.7,-0.43853 -19.8578,-12.29286 -63.3412,-16.0764 -91.7251,-16.0764 z"
         id="path8354" />
      <path
         style="opacity:0.71499999;fill:#303851;fill-opacity:1;fill-rule:evenodd;stroke:none;stroke-width:1px;stroke-linecap:butt;stroke-linejoin:miter;stroke-opacity:1"
         d="m 1523.725,604.10141 c 0,0 16.8333,24.52857 22.1237,44.24744 5.2905,19.71898 5.3394,32.49477 -0.4809,33.66649 -7.1815,1.44596 -13.4666,-8.65703 -13.4666,-18.75697 0,-10.09993 1.9099,-27.48377 0,-37.03318 -1.9238,-9.61905 -8.1762,-22.12378 -8.1762,-22.12378 z"
         id="path8412"
         inkscape:connector-curvature="0"
         sodipodi:nodetypes="cssssc" />
      <path
         style="opacity:0.71499999;fill:#303851;fill-opacity:1;fill-rule:evenodd;stroke:none;stroke-width:1px;stroke-linecap:butt;stroke-linejoin:miter;stroke-opacity:1"
         d="m 1517.4727,597.84917 c 0,0 17.4191,7.04461 24.6334,11.37319 7.2143,4.32858 17.9875,13.33894 24.4235,22.2933 7.4901,10.42074 7.6952,20.19987 2.4048,18.75697 -5.2905,-1.44277 -8.8863,-8.62374 -13.4667,-18.75697 -3.2248,-7.13441 -9.5594,-14.4442 -19.2344,-21.94355 -6.1294,-4.75104 -18.7606,-11.72294 -18.7606,-11.72294 z"
         id="path8414"
         inkscape:connector-curvature="0"
         sodipodi:nodetypes="csssssc" />
      <path
         style="opacity:0.71499999;fill:#303851;fill-opacity:1;fill-rule:evenodd;stroke:none;stroke-width:1px;stroke-linecap:butt;stroke-linejoin:miter;stroke-opacity:1"
         d="m 1514.1331,598.13655 c 0,0 6.5696,-0.49989 17.5269,-0.71061 12.3163,-0.23687 29.6064,4.2634 30.0801,10.4215 0.4737,6.1581 -6.6318,5.44749 -12.0794,3.07905 -5.4476,-2.36857 -12.5416,-7.85445 -20.8429,-9.71089 -8.1917,-1.83195 -14.6847,-3.07905 -14.6847,-3.07905 z"
         id="path8416"
         inkscape:connector-curvature="0"
         sodipodi:nodetypes="cssssc" />
      <path
         sodipodi:nodetypes="csssssssssccscsscscscsssssc"
         inkscape:connector-curvature="0"
         id="path8360"
         d="m 1349.7563,429.57678 c 0,0 17.9248,-0.18323 28.0134,10.17423 10.0885,10.35743 8.1162,19.75309 10.6839,21.99115 2.5677,2.23803 19.5199,20.27251 22.0052,27.73915 2.4602,7.39145 -4.2484,22.66884 -4.448,27.88226 -0.1995,5.21343 3.6672,27.7435 3.06,32.42777 -0.6072,4.68429 -4.6908,10.46589 -4.9402,16.98264 -0.2349,6.13603 2.045,10.8628 1.724,17.01306 -0.3209,6.15028 -4.9098,16.74842 -5.8032,19.96671 -0.8935,3.21828 -10.2274,20.10769 -26.1539,18.04311 -15.9266,-2.06454 -33.6314,-12.45672 -33.6314,-12.45672 0,0 -6.6187,-0.38167 -9.143,0.72001 -2.5243,1.10168 -7.8039,5.37352 -25.3558,-2.81061 -14.1482,-6.59702 -13.7405,-18.92793 -13.7405,-18.92793 0,0 -6.7966,0.0716 -11.9926,-3.93607 -5.1961,-4.0077 -10.1398,-13.18314 -9.0931,-19.87351 0.8771,-5.60108 3.485,-9.43143 3.485,-9.43143 0,0 -4.8665,0.79805 -7.9025,-1.5007 l -3.0362,-2.29876 c 0,0 -1.6155,1.52355 -7.6769,0.43371 -11.8691,-2.13395 -11.7021,-16.28218 -11.7021,-16.28218 -6.0535,-6.53547 -4.8721,-10.49206 -6.2782,-14.03116 -2.2445,-5.64929 -6.816,-11.71938 -6.9201,-14.59065 -0.1041,-2.8713 -1.0692,-13.92851 4.7464,-17.713 11.623,-7.56374 17.9225,-16.61882 27.5512,-21.08626 9.6288,-4.46738 22.3913,0.87834 27.3184,-0.38815 4.9272,-1.2665 9.5681,-3.99896 9.5681,-3.99896"
         style="opacity:1;fill:#ffbb94;fill-opacity:1;stroke:#080808;stroke-width:3;stroke-linecap:round;stroke-linejoin:round;stroke-miterlimit:4;stroke-dasharray:none;stroke-opacity:1" />
      <path
         sodipodi:nodetypes="ccscscsc"
         inkscape:connector-curvature="0"
         id="path8362"
         d="m 1342.4432,481.7508 -17.1643,-18.30861 c 0,0 -10.2986,-4.57715 -17.1643,-4.57715 -6.8658,0 -9.7922,17.60642 -9.7922,17.60642 0,0 -14.2379,7.56791 -16.5265,21.29937 -2.2885,13.73146 -2.2885,17.16432 -2.2885,17.16432 0,0 26.3186,-20.59719 34.3286,-22.88576 8.01,-2.28858 28.6072,-10.29859 28.6072,-10.29859 z"
         style="opacity:1;fill:#ffb387;fill-opacity:0.81388891;stroke:none;stroke-width:2;stroke-linecap:round;stroke-linejoin:round;stroke-miterlimit:4;stroke-dasharray:none;stroke-opacity:1" />
      <path
         sodipodi:nodetypes="cssssssscscsscssscc"
         inkscape:connector-curvature="0"
         id="path8364"
         d="m 1349.5956,434.07581 c 0,0 17.0853,-0.17388 26.7019,9.69917 9.6167,9.87297 7.7377,18.82727 10.1853,20.96064 2.4476,2.13335 18.6074,19.32568 20.9764,26.44309 2.3452,7.04573 -4.0518,21.60921 -4.2419,26.57879 -0.1903,4.96956 3.4983,26.44401 2.9194,30.90916 -0.5788,4.4652 -4.4713,9.97645 -4.709,16.18842 -0.2239,5.84902 1.9471,10.35739 1.6411,16.21997 -0.3058,5.86262 -4.678,15.96445 -5.5296,19.03221 -0.8517,3.06774 -9.7497,19.16641 -24.9313,17.1984 -3.7922,-0.49157 -7.6892,-1.47875 -11.4036,-2.6828 3.0596,-7.82735 1.3428,-18.43381 3.4031,-26.62108 1.7936,-7.12748 7.4865,-11.79944 8.5069,-19.11523 1.2924,-9.26573 -4.4646,-16.93804 -4.4394,-26.3629 0,-8.22488 5.3581,-16.89439 4.1228,-23.93918 -1.2008,-6.84821 -2.5624,-13.7797 -3.2624,-22.04047 -0.6155,-7.26537 7.9112,-24.31807 1.8856,-27.60024 -8.8,-4.79343 -18.049,-21.03222 -25.1077,-32.61755 z"
         style="opacity:1;fill:#ffa773;fill-opacity:0.38888891;stroke:none;stroke-width:0.73804313;stroke-linecap:round;stroke-linejoin:round;stroke-miterlimit:4;stroke-dasharray:none;stroke-opacity:1" />
      <path
         sodipodi:nodetypes="cssszzc"
         inkscape:connector-curvature="0"
         id="path8366"
         d="m 1357.3514,437.53968 c 0,0 -7.4164,-9.06773 -12.892,-10.15197 -5.4757,-1.08422 -24.321,-1.7124 -34.5428,7.82058 -10.2217,9.53298 -12.8326,20.2284 -9.472,27.28498 3.8488,8.08166 7.8656,10.41718 15.1521,11.7742 7.2867,1.35707 13.1382,-2.11073 16.9783,-4.74458 3.8401,-2.63383 3.7648,-2.65946 3.7648,-2.65946"
         style="opacity:1;fill:#ffbb94;fill-opacity:1;stroke:#080808;stroke-width:3;stroke-linecap:round;stroke-linejoin:round;stroke-miterlimit:4;stroke-dasharray:none;stroke-opacity:1" />
      <path
         sodipodi:nodetypes="csssssc"
         inkscape:connector-curvature="0"
         id="path8368"
         d="m 1313.2073,443.52983 c 0,0 4.1863,4.07899 5.5174,11.99782 1.331,7.9188 0.8648,10.21592 1.8585,10.34473 0.9937,0.12883 8.1703,-1.97201 10.2037,-7.26555 2.0334,-5.29352 -1.9475,-13.55582 -4.5053,-15.90813 -2.5578,-2.35233 -4.5397,-2.55249 -5.9131,-2.45052 -5.7811,0.42937 -7.1612,3.28165 -7.1612,3.28165 z"
         style="opacity:1;fill:#f9e8d9;fill-opacity:0.84444424;stroke:none;stroke-width:0.73804313;stroke-linecap:round;stroke-linejoin:round;stroke-miterlimit:4;stroke-dasharray:none;stroke-opacity:1" />
      <path
         sodipodi:nodetypes="csc"
         inkscape:connector-curvature="0"
         id="path8370"
         d="m 1292.3656,482.84595 c 0,0 -3.7467,8.33382 -4.18,14.84102 -0.4333,6.50718 0.2353,10.10415 0.2353,10.10415"
         style="opacity:1;fill:#ffbb94;fill-opacity:1;stroke:#080808;stroke-width:1.25119984;stroke-linecap:round;stroke-linejoin:round;stroke-miterlimit:4;stroke-dasharray:none;stroke-opacity:1" />
      <path
         sodipodi:nodetypes="csc"
         inkscape:connector-curvature="0"
         id="path8372"
         d="m 1278.2829,494.96753 c 0,0 4.9233,4.74032 5.3304,9.51053 0.346,4.0533 -0.9304,7.95523 -0.9304,7.95523"
         style="opacity:1;fill:none;fill-opacity:1;stroke:#080808;stroke-width:1.25119984;stroke-linecap:round;stroke-linejoin:round;stroke-miterlimit:4;stroke-dasharray:none;stroke-opacity:1" />
      <path
         sodipodi:nodetypes="cssc"
         inkscape:connector-curvature="0"
         id="path8374"
         d="m 1282.8999,511.56423 c 0,0 -1.6772,8.19186 -2.671,15.85703 -0.9937,7.66515 -2.7866,13.58589 -5.4762,16.92909 -2.7962,3.47585 -11.1839,7.16464 -11.1839,7.16464"
         style="opacity:1;fill:#ffbb94;fill-opacity:1;stroke:#080808;stroke-width:1.25119984;stroke-linecap:round;stroke-linejoin:round;stroke-miterlimit:4;stroke-dasharray:none;stroke-opacity:1" />
      <path
         inkscape:connector-curvature="0"
         id="path8376"
         d="m 1352.6112,438.96921 c 0.5006,0.8853 3.5487,7.43356 3.8587,11.37074 0.3101,3.93717 -1.651,7.9902 -1.651,7.9902"
         style="opacity:1;fill:#ffbb94;fill-opacity:1;stroke:#080808;stroke-width:1.25119984;stroke-linecap:round;stroke-linejoin:round;stroke-miterlimit:4;stroke-dasharray:none;stroke-opacity:1" />
      <path
         sodipodi:nodetypes="csc"
         inkscape:connector-curvature="0"
         id="path8378"
         d="m 1356.9219,467.42226 c 0,0 -12.4269,10.05805 -21.6413,8.32229 -5.7512,-1.08334 -6.4828,-3.72117 -6.4828,-3.72117"
         style="opacity:1;fill:none;fill-opacity:1;stroke:#080808;stroke-width:2;stroke-linecap:round;stroke-linejoin:round;stroke-miterlimit:4;stroke-dasharray:none;stroke-opacity:1" />
      <path
         sodipodi:nodetypes="cssssc"
         inkscape:connector-curvature="0"
         id="path8380"
         d="m 1245.7392,545.88602 c 0,0 3.0089,-6.75684 10.4741,-12.30278 l 10.9593,-8.14175 c 0.9455,-4.65867 -0.7276,-15.46248 -8.7885,-16.50741 -8.0609,-1.04494 -14.7617,9.02397 -15.8812,15.0261 -1.1195,6.00214 -0.029,10.23254 -0.029,10.23254"
         style="opacity:1;fill:#f9e8d9;fill-opacity:0.84444424;stroke:none;stroke-width:0.73804313;stroke-linecap:round;stroke-linejoin:round;stroke-miterlimit:4;stroke-dasharray:none;stroke-opacity:1" />
      <path
         sodipodi:nodetypes="cssc"
         inkscape:connector-curvature="0"
         id="path8382"
         d="m 1366.5512,521.35298 c 0,0 -23.3056,16.44521 -44.9133,19.79147 -12.1829,1.88667 -29.6934,7.76231 -34.9927,9.12443 -5.2993,1.36216 -11.9545,5.28062 -11.9545,5.28062"
         style="opacity:1;fill:#ffbb94;fill-opacity:1;stroke:#080808;stroke-width:1.25119984;stroke-linecap:round;stroke-linejoin:round;stroke-miterlimit:4;stroke-dasharray:none;stroke-opacity:1" />
      <path
         inkscape:connector-curvature="0"
         id="path8384"
         d="m 1296.9452,539.30955 c 0,0 -4.3974,-2.96063 -6.8107,-8.05466 -2.4133,-5.09405 -2.1271,-12.57026 -2.1271,-12.57026"
         style="opacity:1;fill:#ffbb94;fill-opacity:1;stroke:#080808;stroke-width:1.25119984;stroke-linecap:round;stroke-linejoin:round;stroke-miterlimit:4;stroke-dasharray:none;stroke-opacity:1" />
      <path
         inkscape:connector-curvature="0"
         id="path8386"
         d="m 1370.0468,565.51993 c 0,0 -6.394,1.90328 -12.6574,2.7989 -6.2633,0.89566 -26.5524,9.87706 -33.0335,12.45207 -6.481,2.575 -19.269,6.38153 -22.7583,6.95374 -3.4893,0.57222 -9.9579,0.41672 -9.9579,0.41672"
         style="opacity:1;fill:#ffbb94;fill-opacity:1;stroke:#080808;stroke-width:1.25119984;stroke-linecap:round;stroke-linejoin:round;stroke-miterlimit:4;stroke-dasharray:none;stroke-opacity:1" />
      <path
         inkscape:connector-curvature="0"
         id="path8388"
         d="m 1369.0143,570.8503 c 0,0 -7.0844,-3.30893 -10.5737,-2.73671 -3.4894,0.57222 -3.4894,0.57222 -3.4894,0.57222"
         style="opacity:1;fill:#ffbb94;fill-opacity:1;stroke:#080808;stroke-width:1.25119984;stroke-linecap:round;stroke-linejoin:round;stroke-miterlimit:4;stroke-dasharray:none;stroke-opacity:1" />
      <path
         sodipodi:nodetypes="ccc"
         inkscape:connector-curvature="0"
         id="path8390"
         d="m 1398.7738,521.53475 c 0,0 4.4787,11.96717 4.7146,16.32079 0,0 0.3815,6.57227 -1.7223,11.23052"
         style="opacity:1;fill:#ffbb94;fill-opacity:1;stroke:#080808;stroke-width:1.25119984;stroke-linecap:round;stroke-linejoin:round;stroke-miterlimit:4;stroke-dasharray:none;stroke-opacity:1" />
      <path
         sodipodi:nodetypes="csc"
         inkscape:connector-curvature="0"
         id="path8392"
         d="m 1401.4194,577.66598 c 0,0 0.04,8.05625 -2.1938,13.3406 -2.1057,4.98231 -10.4051,9.79883 -10.4051,9.79883"
         style="opacity:1;fill:#ffbb94;fill-opacity:1;stroke:#080808;stroke-width:1.25119984;stroke-linecap:round;stroke-linejoin:round;stroke-miterlimit:4;stroke-dasharray:none;stroke-opacity:1" />
      <path
         sodipodi:nodetypes="csc"
         inkscape:connector-curvature="0"
         id="path8394"
         d="m 1306.3717,593.05935 c 0,0 1.7455,5.64525 4.1452,9.82707 1.9105,3.32935 7.5401,8.71888 7.5401,8.71888"
         style="opacity:1;fill:#ffbb94;fill-opacity:1;stroke:#080808;stroke-width:1.25119984;stroke-linecap:round;stroke-linejoin:round;stroke-miterlimit:4;stroke-dasharray:none;stroke-opacity:1" />
      <path
         sodipodi:nodetypes="csc"
         inkscape:connector-curvature="0"
         id="path8396"
         d="m 1374.3265,605.11974 c 0,0 -13.38,6.47147 -19.0986,7.58813 -5.7186,1.11661 -8.076,0.19171 -8.076,0.19171"
         style="opacity:1;fill:#ffbb94;fill-opacity:1;stroke:#080808;stroke-width:1.25119984;stroke-linecap:round;stroke-linejoin:round;stroke-miterlimit:4;stroke-dasharray:none;stroke-opacity:1" />
      <path
         inkscape:connector-curvature="0"
         id="path8398"
         d="m 1370.3224,614.50977 c -1.3704,-0.17761 -7.0044,-0.90804 -8.9247,-1.62144 -1.9203,-0.71342 -1.9936,-1.34225 -1.9936,-1.34225"
         style="opacity:1;fill:#ffbb94;fill-opacity:1;stroke:#080808;stroke-width:1.25119984;stroke-linecap:round;stroke-linejoin:round;stroke-miterlimit:4;stroke-dasharray:none;stroke-opacity:1" />
      <path
         sodipodi:nodetypes="csc"
         inkscape:connector-curvature="0"
         id="path8400"
         d="m 1288.6661,562.43046 c 0,0 1.3651,11.85864 3.9647,15.99683 4.2353,6.74219 11.5781,8.62302 11.5781,8.62302"
         style="opacity:1;fill:#ffbb94;fill-opacity:1;stroke:#080808;stroke-width:1.25119984;stroke-linecap:round;stroke-linejoin:round;stroke-miterlimit:4;stroke-dasharray:none;stroke-opacity:1" />
      <path
         sodipodi:nodetypes="csssssc"
         inkscape:connector-curvature="0"
         id="path8402"
         d="m 1313.2039,443.52706 c 0,0 4.1863,4.07899 5.5174,11.99784 1.331,7.91877 0.8648,10.21592 1.8586,10.34471 0.9936,0.12883 8.1702,-1.97201 10.2036,-7.26553 2.0334,-5.29354 -1.9475,-13.55584 -4.5053,-15.90815 -2.5578,-2.35233 -4.5397,-2.55249 -5.913,-2.45052 -5.7812,0.42939 -7.1613,3.28165 -7.1613,3.28165 z"
         style="display:inline;opacity:1;fill:none;fill-opacity:1;stroke:#080808;stroke-width:1.25119984;stroke-linecap:round;stroke-linejoin:round;stroke-miterlimit:4;stroke-dasharray:none;stroke-opacity:1" />
      <path
         sodipodi:nodetypes="cssssc"
         inkscape:connector-curvature="0"
         id="path8404"
         d="m 1245.736,545.88193 c 0,0 3.0089,-6.75685 10.4741,-12.3028 l 10.9594,-8.14175 c 0.9454,-4.65867 -0.7277,-15.46248 -8.7886,-16.50739 -8.0609,-1.04495 -13.7573,8.85295 -15.8812,14.57725 -2.6156,7.04941 2.8134,22.35057 2.8134,22.35057"
         style="display:inline;opacity:1;fill:none;fill-opacity:1;stroke:#080808;stroke-width:1.25119984;stroke-linecap:round;stroke-linejoin:round;stroke-miterlimit:4;stroke-dasharray:none;stroke-opacity:1" />
      <path
         sodipodi:nodetypes="cc"
         inkscape:connector-curvature="0"
         id="path8406"
         d="m 1334.7451,475.73084 c 0,0 0,0 7.3246,6.5847"
         style="opacity:1;fill:#ffbb94;fill-opacity:1;stroke:#080808;stroke-width:1.25119984;stroke-linecap:round;stroke-linejoin:round;stroke-miterlimit:4;stroke-dasharray:none;stroke-opacity:1" />
      <path
         sodipodi:nodetypes="cssscsc"
         inkscape:connector-curvature="0"
         id="path8408"
         d="m 1373.6942,463.03309 c 0,0 -3.035,8.47434 -8.9091,11.76669 -9.5105,5.33051 -21.1727,6.69022 -28.0459,9.08093 -6.8733,2.39071 -26.335,10.12308 -36.5814,16.38374 -10.2464,6.2606 -17.2981,11.72289 -17.2981,11.72289 0,0 0.4474,-6.72858 -2.993,-10.25115 -3.4404,-3.52255 -8.02,-6.16725 -8.02,-6.16725"
         style="opacity:1;fill:none;fill-opacity:1;stroke:#080808;stroke-width:1.25119984;stroke-linecap:round;stroke-linejoin:round;stroke-miterlimit:4;stroke-dasharray:none;stroke-opacity:1" />
      <path
         inkscape:connector-curvature="0"
         id="path8410"
         d="m 1367.1981,526.90108 c 0,0 -6.338,-1.16313 -10.0015,0.75257 -3.6635,1.91572 -3.6635,1.91572 -3.6635,1.91572"
         style="opacity:1;fill:#ffbb94;fill-opacity:1;stroke:#080808;stroke-width:1.25119984;stroke-linecap:round;stroke-linejoin:round;stroke-miterlimit:4;stroke-dasharray:none;stroke-opacity:1" />
    </g>
  </g>
</svg>
