<?xml version="1.0" encoding="iso-8859-1"?>
<!-- Generator: Adobe Illustrator 19.0.0, SVG Export Plug-In . SVG Version: 6.00 Build 0)  -->
<svg version="1.1" id="Layer_1" xmlns="http://www.w3.org/2000/svg" xmlns:xlink="http://www.w3.org/1999/xlink" x="0px" y="0px"
	 viewBox="0 0 512 512" style="enable-background:new 0 0 512 512;" xml:space="preserve">
<path style="fill:#78E3EC;" d="M132.22,0H64.703v112.527c0,9.284,7.089,19.602,15.754,22.933l51.763,19.906l56.264-77.683L132.22,0z
	"/>
<path style="fill:#25BBCC;" d="M413.538,0l-15.743,148.446l33.747-12.986c8.665-3.331,15.754-13.65,15.754-22.933V0H413.538z"/>
<path style="fill:#78E3EC;" d="M379.78,0l-67.516,77.683l67.516,77.683l18.004-6.92c8.676-3.342,15.754-13.65,15.754-22.933V0
	H379.78z"/>
<polygon style="fill:#25BBCC;" points="346.022,0 165.978,0 143.473,84.182 165.978,168.364 256,202.977 346.022,168.364 
	368.527,84.182 "/>
<path style="fill:#FFCD60;" d="M301.011,185.67h-33.758v33.758h33.758c9.317,0,16.879-7.562,16.879-16.879
	C317.89,193.232,310.328,185.67,301.011,185.67z"/>
<path style="fill:#FFEAB5;" d="M267.253,185.67c9.317,0,16.879,7.562,16.879,16.879c0,9.317-7.562,16.879-16.879,16.879h-56.264
	c-9.317,0-16.879-7.562-16.879-16.879c0-9.317,7.562-16.879,16.879-16.879H267.253z"/>
<path style="fill:#E89330;" d="M256,219.429c80.79,0,146.286,65.495,146.286,146.286S336.79,512,256,512l-56.889-146.286
	L256,219.429z"/>
<path style="fill:#FFBE35;" d="M109.714,365.714C109.714,446.505,175.21,512,256,512V219.429
	C175.21,219.429,109.714,284.924,109.714,365.714z"/>
<path style="fill:#FFCD60;" d="M256,253.187v225.055c62.149,0,112.527-50.379,112.527-112.527S318.149,253.187,256,253.187z"/>
<path style="fill:#FFEAB5;" d="M256,253.187c43.503,0,78.769,50.379,78.769,112.527S299.503,478.242,256,478.242
	c-62.149,0-112.527-50.379-112.527-112.527S193.851,253.187,256,253.187z"/>
<path style="fill:#E89330;" d="M323.517,335.332c0-9.322-7.557-16.879-16.879-16.879c-4.663,0-8.885,1.892-11.939,4.948
	l-55.577,55.576l-21.819-21.818c-3.055-3.057-7.276-4.948-11.939-4.948c-9.322,0-16.879,7.557-16.879,16.879
	c0,4.663,1.892,8.885,4.948,11.939l33.755,33.755c3.054,3.054,7.274,4.943,11.935,4.943c4.71,0,8.966-1.933,12.028-5.046
	l67.42-67.411C321.625,344.217,323.517,339.995,323.517,335.332z"/>
<g>
	<path style="fill:#FFFFFF;" d="M165.978,0v168.352l-33.758-12.974c0-0.011,0-155.378,0-155.378H165.978z"/>
	<path style="fill:#FFFFFF;" d="M379.78,0v155.367c0,0.011-33.758,12.986-33.758,12.986V0H379.78z"/>
</g>
<g>
</g>
<g>
</g>
<g>
</g>
<g>
</g>
<g>
</g>
<g>
</g>
<g>
</g>
<g>
</g>
<g>
</g>
<g>
</g>
<g>
</g>
<g>
</g>
<g>
</g>
<g>
</g>
<g>
</g>
</svg>
