<?xml version="1.0" encoding="iso-8859-1"?>
<!-- Generator: Adobe Illustrator 19.0.0, SVG Export Plug-In . SVG Version: 6.00 Build 0)  -->
<svg version="1.1" id="Layer_1" xmlns="http://www.w3.org/2000/svg" xmlns:xlink="http://www.w3.org/1999/xlink" x="0px" y="0px"
	 viewBox="0 0 512.06 512.06" style="enable-background:new 0 0 512.06 512.06;" xml:space="preserve">
<g>
	<g>
		<path d="M220.69,203.064c0-4.873,3.955-8.828,8.828-8.828s8.828,3.955,8.828,8.828c0,4.873-3.955,8.828-8.828,8.828
			S220.69,207.937,220.69,203.064"/>
		<path d="M220.69,238.375c0-4.873,3.955-8.828,8.828-8.828s8.828,3.955,8.828,8.828c0,4.873-3.955,8.828-8.828,8.828
			S220.69,243.248,220.69,238.375"/>
		<path d="M220.69,273.685c0-4.873,3.955-8.828,8.828-8.828s8.828,3.955,8.828,8.828s-3.955,8.828-8.828,8.828
			S220.69,278.558,220.69,273.685"/>
		<path d="M220.69,308.996c0-4.873,3.955-8.828,8.828-8.828s8.828,3.955,8.828,8.828c0,4.873-3.955,8.828-8.828,8.828
			S220.69,313.868,220.69,308.996"/>
	</g>
	<g>
		<path style="fill:#546A79;" d="M508.525,370.789H388.417V141.271h120.064c3.557,0,4.891,4.661,1.88,6.541l-56.002,35.001
			c-2.587,1.615-4.149,4.44-4.149,7.486v22.766c0,4.387,3.231,8.113,7.574,8.739l46.636,6.656c4.352,0.627,7.583,4.352,7.583,8.739
			v37.658c0,4.387-3.231,8.113-7.583,8.739l-46.636,6.656c-4.343,0.627-7.574,4.352-7.574,8.739v22.766
			c0,3.046,1.562,5.87,4.149,7.486l56.038,35.019C513.398,366.145,512.074,370.789,508.525,370.789"/>
		<path style="fill:#546A79;" d="M88.276,291.34V220.72c0-16.711,5.835-32.044,15.537-44.138H0v158.897h103.812
			C94.111,323.384,88.276,308.051,88.276,291.34"/>
		<polygon style="fill:#546A79;" points="264.828,370.789 335.448,370.789 335.448,141.271 264.828,141.271 		"/>
	</g>
	<g>
		<path style="fill:#B0B6BB;" d="M264.828,150.099H158.897c-39,0-70.621,31.62-70.621,70.621v70.621
			c0,39,31.62,70.621,70.621,70.621h105.931V150.099z"/>
		<polygon style="fill:#B0B6BB;" points="335.448,361.961 388.414,361.961 388.414,150.099 335.448,150.099 		"/>
	</g>
	<g>
		<polygon style="fill:#38454F;" points="264.828,335.478 335.448,335.478 335.448,317.823 264.828,317.823 		"/>
		<polygon style="fill:#38454F;" points="264.828,300.168 335.448,300.168 335.448,282.513 264.828,282.513 		"/>
		<polygon style="fill:#38454F;" points="264.828,264.858 335.448,264.858 335.448,247.202 264.828,247.202 		"/>
		<polygon style="fill:#38454F;" points="264.828,229.547 335.448,229.547 335.448,211.892 264.828,211.892 		"/>
		<polygon style="fill:#38454F;" points="264.828,194.237 335.448,194.237 335.448,176.582 264.828,176.582 		"/>
	</g>
	<g>
		<path style="fill:#546A79;" d="M158.897,326.651L158.897,326.651c-9.71,0-17.655-7.945-17.655-17.655V291.34
			c0-9.71,7.945-17.655,17.655-17.655c9.71,0,17.655,7.945,17.655,17.655v17.655C176.552,318.706,168.607,326.651,158.897,326.651"
			/>
		<path style="fill:#546A79;" d="M158.897,238.375L158.897,238.375c-9.71,0-17.655-7.945-17.655-17.655v-17.655
			c0-9.71,7.945-17.655,17.655-17.655c9.71,0,17.655,7.945,17.655,17.655v17.655C176.552,230.43,168.607,238.375,158.897,238.375"/>
	</g>
</g>
<g>
</g>
<g>
</g>
<g>
</g>
<g>
</g>
<g>
</g>
<g>
</g>
<g>
</g>
<g>
</g>
<g>
</g>
<g>
</g>
<g>
</g>
<g>
</g>
<g>
</g>
<g>
</g>
<g>
</g>
</svg>
