<?xml version="1.0" encoding="iso-8859-1"?>
<!-- Generator: Adobe Illustrator 19.0.0, SVG Export Plug-In . SVG Version: 6.00 Build 0)  -->
<svg version="1.1" id="Layer_1" xmlns="http://www.w3.org/2000/svg" xmlns:xlink="http://www.w3.org/1999/xlink" x="0px" y="0px"
	 viewBox="0 0 512 512" style="enable-background:new 0 0 512 512;" xml:space="preserve">
<path style="fill:#E5E5E5;" d="M437.712,72.685H74.288c-22.103,0-40.084,17.981-40.084,40.084v309.979
	c0,4.428,3.589,8.017,8.017,8.017h427.557c4.427,0,8.017-3.588,8.017-8.017V112.768C477.795,90.666,459.815,72.685,437.712,72.685z"
	/>
<path style="fill:#458FDE;" d="M477.795,112.768c0-22.103-17.981-40.084-40.083-40.084H74.288
	c-22.103,0-40.084,17.981-40.084,40.084v21.022h443.591V112.768z"/>
<path style="fill:#CCCCCC;" d="M74.288,422.747V112.768c0-22.103,17.981-40.084,40.084-40.084H74.288
	c-22.103,0-40.084,17.981-40.084,40.084v309.979c0,4.428,3.589,8.017,8.017,8.017h40.084
	C77.877,430.764,74.288,427.176,74.288,422.747z"/>
<path style="fill:#4F5AA8;" d="M74.288,112.768c0-22.103,17.981-40.084,40.084-40.084H74.288c-22.103,0-40.084,17.981-40.084,40.084
	v21.022h40.084V112.768z"/>
<path style="fill:#458FDE;" d="M0,386.227v13.005c0,22.138,17.946,40.083,40.084,40.083h431.833
	c22.138,0,40.083-17.946,40.083-40.083v-13.005c0-4.427-3.589-8.017-8.017-8.017H8.017C3.589,378.21,0,381.799,0,386.227z"/>
<g>
	<path style="fill:#4F5AA8;" d="M43.29,399.232V378.21H8.017c-4.427,0-8.017,3.589-8.017,8.017v13.005
		c0,22.138,17.946,40.083,40.084,40.083h43.29C61.271,439.315,43.29,421.334,43.29,399.232z"/>
	<path style="fill:#4F5AA8;" d="M196.676,378.21v21.022c0,4.427,3.589,8.017,8.017,8.017h102.614c4.427,0,8.017-3.589,8.017-8.017
		V378.21H196.676z"/>
	<path style="fill:#4F5AA8;" d="M273.102,112.234h-34.205c-4.427,0-8.017-3.588-8.017-8.017c0-4.428,3.589-8.017,8.017-8.017h34.205
		c4.427,0,8.017,3.588,8.017,8.017C281.119,108.646,277.53,112.234,273.102,112.234z"/>
</g>
<path style="fill:#CCCCCC;" d="M183.315,280.05H153.61c-1.723,0-3.442,0.459-4.844,1.46c-2.859,2.042-4.001,5.561-3.087,8.76
	l17.039,56.239c1.024,3.381,4.14,5.692,7.673,5.692h12.925c4.427,0,8.017-3.589,8.017-8.017v-56.117
	C191.332,283.639,187.743,280.05,183.315,280.05z"/>
<path style="fill:#FFD652;" d="M303.35,172.47c-2.145-1.502-4.889-1.857-7.345-0.96l-111.165,40.618
	c-3.162,1.155-5.265,4.164-5.265,7.53v68.409c0,3.366,2.104,6.375,5.265,7.53l111.165,40.618c0.894,0.326,1.825,0.486,2.75,0.486
	c1.623,0,3.229-0.493,4.594-1.447c2.145-1.5,3.423-3.953,3.423-6.569V179.041C306.772,176.423,305.495,173.97,303.35,172.47z"/>
<g>
	<path style="fill:#FB9D46;" d="M184.839,212.127c-3.162,1.155-5.265,4.164-5.265,7.53v68.409c0,3.366,2.104,6.375,5.265,7.53
		l24.396,8.914V203.213L184.839,212.127z"/>
	<path style="fill:#FB9D46;" d="M324.409,156.058h-38.48c-4.427,0-8.017,3.588-8.017,8.017v179.574c0,4.428,3.589,8.017,8.017,8.017
		h38.48c4.427,0,8.017-3.588,8.017-8.017V164.075C332.426,159.647,328.837,156.058,324.409,156.058z"/>
</g>
<rect x="277.912" y="223.933" style="fill:#F7EDBC;" width="54.514" height="36.61"/>
<g>
	<path style="fill:#FF7452;" d="M277.912,309.712v33.937c0,4.428,3.589,8.017,8.017,8.017h38.48c4.427,0,8.017-3.588,8.017-8.017
		v-33.937H277.912z"/>
	<path style="fill:#FF7452;" d="M115.975,235.691v36.342c0,13.261,10.788,24.05,24.05,24.05h45.962v-84.443h-45.962
		C126.763,211.641,115.975,222.43,115.975,235.691z"/>
</g>
<g>
	<path style="fill:#E24642;" d="M135.215,272.033v-36.342c0-13.261,10.788-24.05,24.05-24.05h-19.775
		c-13.262,0-24.05,10.789-24.05,24.05v36.342c0,13.261,10.788,24.05,24.05,24.05h19.775
		C146.003,296.084,135.215,285.294,135.215,272.033z"/>
	<path style="fill:#E24642;" d="M390.681,261.879h-29.929c-4.427,0-8.017-3.588-8.017-8.017c0-4.428,3.589-8.017,8.017-8.017h29.929
		c4.427,0,8.017,3.588,8.017,8.017C398.697,258.291,395.108,261.879,390.681,261.879z"/>
	<path style="fill:#E24642;" d="M360.756,210.572c-2.297,0-4.577-0.982-6.163-2.884c-2.835-3.402-2.375-8.457,1.026-11.291
		l25.653-21.378c3.4-2.834,8.456-2.375,11.291,1.026c2.835,3.402,2.375,8.457-1.026,11.291l-25.653,21.378
		C364.385,209.963,362.565,210.572,360.756,210.572z"/>
	<path style="fill:#E24642;" d="M386.401,334.564c-1.81,0-3.629-0.608-5.128-1.858l-25.653-21.378
		c-3.401-2.834-3.861-7.89-1.026-11.291c2.835-3.4,7.89-3.861,11.291-1.026l25.653,21.378c3.401,2.834,3.861,7.89,1.026,11.291
		C390.978,333.581,388.698,334.564,386.401,334.564z"/>
</g>
<g>
</g>
<g>
</g>
<g>
</g>
<g>
</g>
<g>
</g>
<g>
</g>
<g>
</g>
<g>
</g>
<g>
</g>
<g>
</g>
<g>
</g>
<g>
</g>
<g>
</g>
<g>
</g>
<g>
</g>
</svg>
