<?xml version="1.0" encoding="iso-8859-1"?>
<!-- Generator: Adobe Illustrator 19.0.0, SVG Export Plug-In . SVG Version: 6.00 Build 0)  -->
<svg version="1.1" id="Layer_1" xmlns="http://www.w3.org/2000/svg" xmlns:xlink="http://www.w3.org/1999/xlink" x="0px" y="0px"
	 viewBox="0 0 512 512" style="enable-background:new 0 0 512 512;" xml:space="preserve">
<path style="fill:#042431;" d="M205.747,29.758c-23.524-22.342-59.456-28.636-90.01-13.068l71.521,140.367
	c30.554-15.568,46.583-48.337,42.335-80.501l53.097-29.638L260.934,4.222L205.747,29.758z"/>
<path d="M264.071,478.242c-1.362,0-2.723-0.33-3.961-0.988l-54.708-29.085c-4.116-2.188-5.678-7.297-3.491-11.414
	c2.188-4.115,7.3-5.676,11.414-3.491l50.747,26.979l50.75-26.979c4.115-2.188,9.226-0.626,11.414,3.491
	c2.188,4.115,0.626,9.226-3.491,11.414l-54.712,29.086C266.794,477.913,265.432,478.242,264.071,478.242z"/>
<path d="M392.04,512c-1.944,0-3.899-0.668-5.491-2.035L264.071,404.905L141.593,509.966c-3.54,3.035-8.866,2.627-11.901-0.911
	c-3.035-3.537-2.626-8.865,0.91-11.9L258.576,387.38c3.161-2.712,7.828-2.712,10.989,0l127.974,109.775
	c3.538,3.035,3.945,8.363,0.91,11.9C396.781,511.001,394.418,512,392.04,512z"/>
<path d="M191.483,169.719c-3.073,0-6.036-1.685-7.526-4.61L112.436,24.742c-1.016-1.994-1.198-4.311-0.506-6.44
	c0.692-2.129,2.2-3.895,4.195-4.912c31.127-15.86,68.701-11.482,95.309,10.609L261.61,0.782c4.117-1.906,9.003-0.215,11.064,3.828
	l21.755,42.696c2.059,4.042,0.555,8.99-3.406,11.201l-48.275,26.947c2.234,34.51-16.31,67.482-47.439,83.343
	C194.081,169.422,192.773,169.719,191.483,169.719z M131.538,25.051l63.395,124.422c21.947-14.751,34.034-40.925,30.511-67.592
	c-0.452-3.43,1.233-6.788,4.254-8.474l46.002-25.678l-14.378-28.216l-47.813,22.124c-3.141,1.453-6.847,0.843-9.355-1.54
	C184.652,21.573,156.372,15.968,131.538,25.051z"/>
<path d="M276.038,38.231c-3.073,0-6.036-1.683-7.526-4.61c-2.116-4.153-0.465-9.235,3.689-11.351l10.026-5.109
	c4.152-2.117,9.235-0.465,11.351,3.689s0.465,9.235-3.689,11.351l-10.026,5.109C278.635,37.935,277.327,38.231,276.038,38.231z"/>
<path d="M264.078,112.893c-3.073,0-6.036-1.685-7.526-4.61l-16.091-31.582c-2.116-4.152-0.465-9.235,3.689-11.351
	c4.151-2.117,9.235-0.465,11.351,3.689l16.091,31.582c2.116,4.152,0.465,9.235-3.689,11.351
	C266.676,112.596,265.367,112.893,264.078,112.893z"/>
<path d="M264.071,512c-4.661,0-8.44-3.779-8.44-8.44v-399.11c0-4.661,3.779-8.44,8.44-8.44h33.758c4.661,0,8.44,3.779,8.44,8.44
	s-3.779,8.44-8.44,8.44H272.51v390.67C272.51,508.222,268.732,512,264.071,512z"/>
<path d="M297.829,124.144c-4.661,0-8.44-3.779-8.44-8.44V93.199c0-4.661,3.779-8.44,8.44-8.44s8.44,3.779,8.44,8.44v22.505
	C306.269,120.365,302.49,124.144,297.829,124.144z"/>
<g>
</g>
<g>
</g>
<g>
</g>
<g>
</g>
<g>
</g>
<g>
</g>
<g>
</g>
<g>
</g>
<g>
</g>
<g>
</g>
<g>
</g>
<g>
</g>
<g>
</g>
<g>
</g>
<g>
</g>
</svg>
