<?xml version="1.0" encoding="iso-8859-1"?>
<!-- Generator: Adobe Illustrator 19.0.0, SVG Export Plug-In . SVG Version: 6.00 Build 0)  -->
<svg version="1.1" id="Layer_1" xmlns="http://www.w3.org/2000/svg" xmlns:xlink="http://www.w3.org/1999/xlink" x="0px" y="0px"
	 viewBox="0 0 511.999 511.999" style="enable-background:new 0 0 511.999 511.999;" xml:space="preserve">
<rect x="16.988" y="174.105" style="fill:#006DF0;" width="357.303" height="237.066"/>
<rect x="195.637" y="174.105" style="fill:#0052B4;" width="178.651" height="237.066"/>
<path style="fill:#93C7EF;" d="M0,398.518v23.016c0,25.383,20.65,46.032,46.032,46.032h299.21c25.382,0,46.032-20.649,46.032-46.032
	v-23.016H0z"/>
<path style="fill:#78B9EB;" d="M195.664,398.518v69.048h149.579c25.382,0,46.032-20.649,46.032-46.032v-23.016H195.664z"/>
<g>
	<polygon style="fill:#FFFFFF;" points="131.645,248.957 87.016,293.585 131.645,338.215 156.056,313.803 135.841,293.585 
		156.056,273.369 	"/>
	<polygon style="fill:#FFFFFF;" points="226.939,228.694 193.155,221.582 165.104,354.829 200.384,354.829 	"/>
</g>
<path style="fill:#006DF0;" d="M499.402,296.062L361.066,157.727c-8.124-8.126-18.961-12.598-30.516-12.598
	s-22.392,4.473-30.516,12.597c-8.124,8.124-12.598,18.962-12.598,30.516c0,11.554,4.474,22.391,12.598,30.516L438.37,357.095
	c8.125,8.125,18.962,12.597,30.516,12.597c11.555,0,22.392-4.473,30.515-12.598c8.125-8.125,12.598-18.962,12.598-30.516
	C511.999,315.024,507.527,304.185,499.402,296.062z"/>
<circle style="fill:#FFFFFF;" cx="330.592" cy="188.283" r="126.589"/>
<g>
	<path style="fill:#78B9EB;" d="M330.594,332.066c-36.837,0-73.675-14.021-101.719-42.065l0,0
		c-27.169-27.169-42.132-63.294-42.132-101.718c0-38.425,14.963-74.548,42.132-101.719s63.294-42.132,101.719-42.132
		c38.423,0,74.548,14.963,101.718,42.132s42.133,63.293,42.133,101.719c0,38.423-14.964,74.547-42.133,101.718
		C404.267,318.043,367.43,332.066,330.594,332.066z M253.287,265.589c42.627,42.625,111.984,42.625,154.611,0
		c20.649-20.649,32.021-48.103,32.021-77.305c0-29.202-11.372-56.657-32.021-77.307c-20.649-20.649-48.104-32.02-77.305-32.02
		c-29.203,0-56.657,11.371-77.305,32.02s-32.021,48.105-32.021,77.307C221.267,217.486,232.638,244.94,253.287,265.589
		L253.287,265.589z"/>
	<path style="fill:#78B9EB;" d="M432.31,86.565c-27.168-27.169-63.294-42.132-101.718-42.132v34.524
		c29.202,0,56.655,11.371,77.306,32.02c20.649,20.649,32.021,48.105,32.021,77.307c0,29.203-11.372,56.655-32.021,77.305
		c-21.314,21.313-49.31,31.968-77.305,31.968v34.508c36.836,0,73.675-14.023,101.718-42.065
		c27.169-27.169,42.133-63.294,42.133-101.718C474.445,149.859,459.481,113.735,432.31,86.565z"/>
</g>
<path style="fill:#006DF0;" d="M316.578,181.463l-34.524-0.137l0.142-35.691c0.138-25.366,20.797-45.885,46.106-45.885
	c0.085,0,0.17,0,0.257,0c25.426,0.139,45.998,20.937,45.86,46.363l-34.524-0.094c0.017-3.158-1.181-6.066-3.374-8.281
	c-2.191-2.216-5.087-3.444-8.15-3.463c-0.02,0-0.04,0-0.061,0c-6.255,0-11.555,5.263-11.589,11.525L316.578,181.463z"/>
<polygon style="fill:#0052B4;" points="272.375,174.111 271.789,248.839 383.563,249.447 384.181,174.632 "/>
<g>
</g>
<g>
</g>
<g>
</g>
<g>
</g>
<g>
</g>
<g>
</g>
<g>
</g>
<g>
</g>
<g>
</g>
<g>
</g>
<g>
</g>
<g>
</g>
<g>
</g>
<g>
</g>
<g>
</g>
</svg>
