<?xml version="1.0" encoding="iso-8859-1"?>
<!-- Generator: Adobe Illustrator 19.0.0, SVG Export Plug-In . SVG Version: 6.00 Build 0)  -->
<svg version="1.1" id="Layer_1" xmlns="http://www.w3.org/2000/svg" xmlns:xlink="http://www.w3.org/1999/xlink" x="0px" y="0px"
	 viewBox="0 0 512 512" style="enable-background:new 0 0 512 512;" xml:space="preserve">
<polygon style="fill:#818085;" points="313.6,497.325 134.4,497.325 160,433.325 288,433.325 "/>
<polygon style="fill:#565659;" points="224,497.325 134.4,497.325 160,433.325 224,433.325 "/>
<path style="fill:#DEDDE0;" d="M60.16,446.125C26.935,446.125,0,419.19,0,385.965v-225.28c0-33.225,26.935-60.16,60.16-60.16h327.68
	c33.228,0,60.16,26.935,60.16,60.16v225.28c0,33.225-26.932,60.16-60.16,60.16H60.16z"/>
<path style="fill:#BDBCC1;" d="M224,100.525H60.16C26.935,100.525,0,127.46,0,160.685v225.28c0,33.225,26.935,60.16,60.16,60.16H224
	V100.525z"/>
<path style="fill:#616064;" d="M448,369.325v-208.64c0-33.225-26.932-60.16-60.16-60.16H60.16C26.935,100.525,0,127.46,0,160.685
	v208.64h57.6l166.4-12.8l166.4,12.8H448z"/>
<path d="M224,100.525H60.16C26.935,100.525,0,127.46,0,160.685v208.64h57.6l166.4-12.8V100.525z"/>
<rect x="57.6" y="151.718" style="fill:#00D7DF;" width="332.8" height="217.6"/>
<rect x="57.6" y="151.718" style="fill:#00A1A7;" width="166.4" height="217.6"/>
<g>
	<polygon style="fill:#FFFFFF;" points="268.8,254.125 237.42,301.197 192,228.525 128,330.925 320,330.925 	"/>
	<circle style="fill:#FFFFFF;" cx="249.6" cy="209.318" r="19.2"/>
</g>
<path style="fill:#DEDDE0;" d="M476.229,215.725H365.11c-19.756,0-35.77,16.015-35.77,35.77v210.058
	c0,19.757,16.015,35.771,35.77,35.771h111.119c19.756,0,35.771-16.015,35.771-35.771V251.494
	C512,231.74,495.983,215.725,476.229,215.725z"/>
<path style="fill:#BDBCC1;" d="M420.669,215.725h-55.56c-19.756,0-35.77,16.015-35.77,35.77v210.058
	c0,19.757,16.015,35.771,35.77,35.771h55.56V215.725z"/>
<rect x="329.344" y="253.773" style="fill:#616064;" width="182.656" height="30.444"/>
<polygon points="420.669,284.223 329.34,279.725 329.34,253.779 420.669,253.779 "/>
<rect x="329.344" y="407.731" style="fill:#616064;" width="182.656" height="28.713"/>
<polygon points="420.669,436.438 329.34,436.438 329.34,407.725 420.669,405.995 "/>
<circle style="fill:#FFFFFF;" cx="420.672" cy="466.88" r="15.222"/>
<rect x="329.344" y="280.422" style="fill:#00D7DF;" width="182.656" height="129.382"/>
<rect x="329.344" y="280.422" style="fill:#00A1A7;" width="91.328" height="129.382"/>
<g>
	<polygon style="fill:#FFFFFF;" points="447.308,341.303 428.65,369.292 401.642,326.083 363.589,386.967 477.75,386.967 	"/>
	<circle style="fill:#FFFFFF;" cx="435.891" cy="314.662" r="11.416"/>
</g>
<g>
	<path style="fill:#DEDDE0;" d="M371.405,63.094c-32.037-30.024-75.101-48.419-122.475-48.419
		c-64.737,0-121.44,34.335-152.929,85.779l42.644,28.43c22.268-37.71,63.319-63.011,110.285-63.011
		c33.536,0,64.047,12.91,86.865,34.019C346.908,86.988,359.247,75.113,371.405,63.094z"/>
	<polygon style="fill:#DEDDE0;" points="370.531,27.475 389.731,123.475 288,100.525 	"/>
</g>
<path style="fill:#CDCDD0;" d="M248.951,14.675c-0.008,0-0.014,0-0.022,0c-64.737,0-121.44,34.335-152.929,85.779l42.644,28.43
	c22.268-37.71,63.319-63.011,110.285-63.011c0.008,0,0.014,0,0.022,0L248.951,14.675L248.951,14.675z"/>
<g>
</g>
<g>
</g>
<g>
</g>
<g>
</g>
<g>
</g>
<g>
</g>
<g>
</g>
<g>
</g>
<g>
</g>
<g>
</g>
<g>
</g>
<g>
</g>
<g>
</g>
<g>
</g>
<g>
</g>
</svg>
