<?xml version="1.0" encoding="iso-8859-1"?>
<!-- Generator: Adobe Illustrator 19.0.0, SVG Export Plug-In . SVG Version: 6.00 Build 0)  -->
<svg version="1.1" id="Layer_1" xmlns="http://www.w3.org/2000/svg" xmlns:xlink="http://www.w3.org/1999/xlink" x="0px" y="0px"
	 viewBox="0 0 512 512" style="enable-background:new 0 0 512 512;" xml:space="preserve">
<path style="fill:#F2F2F2;" d="M207.793,169.283h183.971c8.11,0,14.694,6.583,14.694,14.694v288.128H105.554L0,455.221V183.977
	c0-8.11,6.583-14.694,14.694-14.694H207.793z"/>
<path style="fill:#2BA5F7;" d="M207.793,199.428h168.52v225.648H30.145V199.428L207.793,199.428L207.793,199.428z"/>
<path style="fill:#CCCCCC;" d="M152.666,495.714H29.979C13.427,495.714,0,482.287,0,465.735v-10.514h125.765v13.592
	C125.765,483.673,137.807,495.714,152.666,495.714z"/>
<path style="fill:#E6E6E6;" d="M512,455.221v13.592c0,14.859-12.041,26.901-26.901,26.901h-78.642H132.455
	c-14.859,0-26.901-12.041-26.901-26.901v-13.592h300.903H512z"/>
<path style="fill:#CCCCCC;" d="M127.944,258.404c9.922,0,17.973,8.051,17.973,17.973v40.422c0,4.961-2.013,9.46-5.269,12.704
	c-3.256,3.256-7.743,5.269-12.704,5.269c-9.922,0-17.973-8.051-17.973-17.973v-20.211v-20.211
	C109.971,266.455,118.022,258.404,127.944,258.404z"/>
<g>
	<path style="fill:#F95428;" d="M304.905,332.996v22.472c0,9.437-4.878,18.281-13,23.112c-8.134,4.843-12.148,13.202-25.989,13.202
		c-19.501,0-19.501-16.576-38.989-16.576c-19.501,0-19.501,16.576-38.989,16.576s-19.489-16.576-38.977-16.576
		c-4.878,0-8.537,1.03-11.58,2.593c-12.527,6.394-27.41-2.238-27.41-16.304v-46.472c0,9.922,8.051,17.973,17.973,17.973H304.905z"/>
	<path style="fill:#F95428;" d="M340.84,276.377v40.422c0,9.922-8.039,17.973-17.973,17.973h-17.961H127.944
		c4.961,0,9.448-2.013,12.704-5.269c3.256-3.244,5.269-7.743,5.269-12.704v-40.422c0-9.922-8.051-17.973-17.973-17.973h194.923
		C332.801,258.404,340.84,266.455,340.84,276.377z"/>
</g>
<path style="fill:#666666;" d="M121.811,305.468H91.121c-13.109,0-23.775-10.666-23.775-23.775V246.67
	c0-13.116,10.666-23.787,23.775-23.787h101.777c3.316,0,6.015-2.698,6.015-6.015v-73.527c0-4.904,3.975-8.88,8.88-8.88
	c4.905,0,8.88,3.976,8.88,8.88v73.527c0,13.109-10.666,23.775-23.775,23.775H91.121c-3.316,0-6.015,2.704-6.015,6.027v35.023
	c0,3.316,2.698,6.015,6.015,6.015h30.689c4.905,0,8.88,3.976,8.88,8.88S126.716,305.468,121.811,305.468z"/>
<path style="fill:#F7B239;" d="M240.633,136.238h-12.262V25.133c0-4.886-3.961-8.847-8.847-8.847h-25.747
	c-4.886,0-8.847,3.961-8.847,8.847v111.105h-12.262c-4.863,0-9.103,3.746-9.248,8.607c-0.152,5.028,3.88,9.154,8.876,9.154h68.708
	c4.995,0,9.027-4.124,8.876-9.154C249.734,139.984,245.494,136.238,240.633,136.238z"/>
<path style="fill:#E54728;" d="M304.905,332.996v14.196H109.971v-32.169c0,9.922,8.051,17.973,17.973,17.973L304.905,332.996
	L304.905,332.996z"/>
<g>
</g>
<g>
</g>
<g>
</g>
<g>
</g>
<g>
</g>
<g>
</g>
<g>
</g>
<g>
</g>
<g>
</g>
<g>
</g>
<g>
</g>
<g>
</g>
<g>
</g>
<g>
</g>
<g>
</g>
</svg>
