<?xml version="1.0" encoding="iso-8859-1"?>
<!-- Generator: Adobe Illustrator 19.0.0, SVG Export Plug-In . SVG Version: 6.00 Build 0)  -->
<svg version="1.1" id="Layer_1" xmlns="http://www.w3.org/2000/svg" xmlns:xlink="http://www.w3.org/1999/xlink" x="0px" y="0px"
	 viewBox="0 0 512 512" style="enable-background:new 0 0 512 512;" xml:space="preserve">
<path style="fill:#546A79;" d="M504.082,18.474v475.052c0,5.806-4.751,10.557-10.557,10.557H18.474
	c-5.806,0-10.557-4.751-10.557-10.557V18.474c0-5.806,4.751-10.557,10.557-10.557h475.052
	C499.332,7.918,504.082,12.668,504.082,18.474z"/>
<path style="fill:#435663;" d="M133.326,7.918H18.474c-5.806,0-10.557,4.751-10.557,10.557v475.052
	c0,5.806,4.751,10.557,10.557,10.557h475.052c5.806,0,10.557-4.751,10.557-10.557v-63.491
	C314.395,368.841,170.094,207.38,133.326,7.918z"/>
<rect x="298.227" y="155.711" style="fill:#00ABD5;" width="116.124" height="200.577"/>
<rect x="97.649" y="155.711" style="fill:#FFD311;" width="200.577" height="200.577"/>
<polygon style="fill:#FBC119;" points="97.649,356.289 298.227,155.711 97.649,155.711 "/>
<polygon style="fill:#00A4D4;" points="298.227,356.289 414.351,356.289 414.351,155.711 413.944,155.711 "/>
<path d="M493.526,0H18.474C8.288,0,0,8.288,0,18.474v475.052C0,503.712,8.288,512,18.474,512h475.052
	c10.186,0,18.474-8.288,18.474-18.474V18.474C512,8.288,503.712,0,493.526,0z M496.165,493.526c0,1.43-1.209,2.639-2.639,2.639
	H18.474c-1.43,0-2.639-1.209-2.639-2.639V18.474c0-1.43,1.209-2.639,2.639-2.639h475.052c1.43,0,2.639,1.209,2.639,2.639V493.526z"
	/>
<path d="M89.732,147.794v216.412h332.536V147.794H89.732z M306.144,163.629h100.289v184.742H306.144V163.629z M105.567,348.371
	V163.629h184.742v184.742H105.567z"/>
<g>
	<polygon style="fill:#FFFFFF;" points="68.619,171.546 52.784,171.546 52.784,110.845 108.206,110.845 108.206,126.68 
		68.619,126.68 	"/>
	<polygon style="fill:#FFFFFF;" points="459.217,171.546 443.381,171.546 443.381,126.68 403.794,126.68 403.794,110.845 
		459.217,110.845 	"/>
	<polygon style="fill:#FFFFFF;" points="459.217,401.155 403.794,401.155 403.794,385.32 443.381,385.32 443.381,340.454 
		459.217,340.454 	"/>
	<polygon style="fill:#FFFFFF;" points="108.206,401.155 52.784,401.155 52.784,340.454 68.619,340.454 68.619,385.32 
		108.206,385.32 	"/>
	<rect x="50.144" y="443.381" style="fill:#FFFFFF;" width="205.856" height="15.835"/>
	<rect x="435.464" y="443.381" style="fill:#FFFFFF;" width="26.392" height="15.835"/>
	<rect x="382.68" y="443.381" style="fill:#FFFFFF;" width="26.392" height="15.835"/>
	<rect x="329.897" y="443.381" style="fill:#FFFFFF;" width="26.392" height="15.835"/>
	<rect x="92.371" y="63.34" style="fill:#FFFFFF;" width="26.392" height="15.835"/>
	<rect x="435.464" y="63.34" style="fill:#FFFFFF;" width="26.392" height="15.835"/>
	<rect x="50.144" y="63.34" style="fill:#FFFFFF;" width="26.392" height="15.835"/>
	<polygon style="fill:#FFFFFF;" points="142.515,224.33 126.68,224.33 126.68,184.742 160.99,184.742 160.99,200.577 
		142.515,200.577 	"/>
	<polygon style="fill:#FFFFFF;" points="343.093,224.33 327.258,224.33 327.258,184.742 361.567,184.742 361.567,200.577 
		343.093,200.577 	"/>
</g>
<g>
</g>
<g>
</g>
<g>
</g>
<g>
</g>
<g>
</g>
<g>
</g>
<g>
</g>
<g>
</g>
<g>
</g>
<g>
</g>
<g>
</g>
<g>
</g>
<g>
</g>
<g>
</g>
<g>
</g>
</svg>
